<svg width="80" height="80" viewBox="0 0 80 80" fill="none" xmlns="http://www.w3.org/2000/svg">
<g clip-path="url(#clip0)">
<path d="M45.2 60.87C44.2298 60.8201 43.3158 60.3996 42.6467 59.6952C41.9777 58.9909 41.6046 58.0565 41.6046 57.085C41.6046 56.1135 41.9777 55.1791 42.6467 54.4748C43.3158 53.7704 44.2298 53.3499 45.2 53.3V53.3C46.1702 53.3499 47.0842 53.7704 47.7533 54.4748C48.4223 55.1791 48.7954 56.1135 48.7954 57.085C48.7954 58.0565 48.4223 58.9909 47.7533 59.6952C47.0842 60.3996 46.1702 60.8201 45.2 60.87V60.87ZM45.2 54.8C44.8872 54.7793 44.5735 54.823 44.2783 54.9285C43.9831 55.034 43.7127 55.1989 43.4839 55.4131C43.255 55.6273 43.0726 55.8862 42.9478 56.1738C42.8231 56.4614 42.7588 56.7715 42.7588 57.085C42.7588 57.3985 42.8231 57.7086 42.9478 57.9962C43.0726 58.2838 43.255 58.5427 43.4839 58.7569C43.7127 58.9711 43.9831 59.136 44.2783 59.2415C44.5735 59.347 44.8872 59.3907 45.2 59.37V59.37C45.7799 59.3316 46.3235 59.0742 46.7207 58.6499C47.1178 58.2256 47.3388 57.6662 47.3388 57.085C47.3388 56.5038 47.1178 55.9444 46.7207 55.5201C46.3235 55.0958 45.7799 54.8384 45.2 54.8V54.8ZM13.44 60.87C12.9432 60.8713 12.4511 60.7744 11.9919 60.585C11.5327 60.3955 11.1155 60.1171 10.7642 59.7658C10.4129 59.4145 10.1345 58.9973 9.94505 58.5381C9.75555 58.0789 9.65868 57.5868 9.66 57.09C9.65731 56.0862 10.0529 55.1224 10.76 54.41C11.4739 53.7038 12.4359 53.3054 13.44 53.3V53.3C13.9534 53.2736 14.4668 53.3519 14.949 53.5302C15.4312 53.7085 15.8721 53.9831 16.2448 54.3371C16.6176 54.6912 16.9144 55.1174 17.1172 55.5898C17.32 56.0622 17.4246 56.5709 17.4246 57.085C17.4246 57.5991 17.32 58.1078 17.1172 58.5802C16.9144 59.0526 16.6176 59.4788 16.2448 59.8329C15.8721 60.1869 15.4312 60.4615 14.949 60.6398C14.4668 60.8181 13.9534 60.8964 13.44 60.87V60.87ZM13.44 54.8C12.8601 54.8384 12.3165 55.0958 11.9194 55.5201C11.5222 55.9444 11.3012 56.5038 11.3012 57.085C11.3012 57.6662 11.5222 58.2256 11.9194 58.6499C12.3165 59.0742 12.8601 59.3316 13.44 59.37C13.7528 59.3907 14.0665 59.347 14.3617 59.2415C14.6569 59.136 14.9273 58.9711 15.1561 58.7569C15.385 58.5427 15.5674 58.2838 15.6922 57.9962C15.8169 57.7086 15.8812 57.3985 15.8812 57.085C15.8812 56.7715 15.8169 56.4614 15.6922 56.1738C15.5674 55.8862 15.385 55.6273 15.1561 55.4131C14.9273 55.1989 14.6569 55.034 14.3617 54.9285C14.0665 54.823 13.7528 54.7793 13.44 54.8Z" fill="#B70037"/>
<path d="M49.56 73.22H47.07C45.8559 73.2118 44.6848 72.7699 43.7679 71.974C42.8511 71.1782 42.2489 70.0808 42.07 68.88H16.6C16.4211 70.0808 15.8189 71.1782 14.9021 71.974C13.9852 72.7699 12.8141 73.2118 11.6 73.22H9.09C7.74086 73.2174 6.44773 72.6802 5.49375 71.7263C4.53976 70.7723 4.00264 69.4791 4 68.13V53.13L9.15 47.54V42.8L15.57 36.8H43.11L49.48 42.72V47.48L54.64 53.16V68.16C54.6295 69.5022 54.0903 70.7862 53.1393 71.7334C52.1883 72.6806 50.9022 73.2148 49.56 73.22V73.22ZM15.16 67.38H43.48V68.13C43.48 69.0821 43.8582 69.9953 44.5315 70.6685C45.2047 71.3418 46.1179 71.72 47.07 71.72H49.56C50.5104 71.7174 51.421 71.338 52.0921 70.665C52.7631 69.992 53.14 69.0804 53.14 68.13V53.73L48 48.05V43.36L42.54 38.29H16.17L10.66 43.45V48.15L5.5 53.73V68.13C5.5 69.0821 5.87823 69.9953 6.55149 70.6685C7.22474 71.3418 8.13787 71.72 9.09 71.72H11.57C12.5221 71.72 13.4353 71.3418 14.1085 70.6685C14.7818 69.9953 15.16 69.0821 15.16 68.13V67.38Z" fill="#B70037"/>
<path d="M13.44 60.87C12.6928 60.868 11.963 60.6447 11.3427 60.2281C10.7224 59.8116 10.2394 59.2205 9.95487 58.5296C9.67031 57.8388 9.59688 57.079 9.74385 56.3464C9.89083 55.6139 10.2516 54.9413 10.7807 54.4136C11.3097 53.886 11.9833 53.527 12.7162 53.3819C13.4492 53.2369 14.2087 53.3123 14.8988 53.5987C15.589 53.8851 16.1787 54.3696 16.5936 54.991C17.0086 55.6124 17.23 56.3428 17.23 57.09C17.23 57.5872 17.1319 58.0796 16.9413 58.5389C16.7507 58.9981 16.4714 59.4153 16.1193 59.7664C15.7673 60.1175 15.3494 60.3958 14.8896 60.5851C14.4298 60.7745 13.9372 60.8713 13.44 60.87V60.87ZM13.44 54.81C12.9895 54.812 12.5497 54.9474 12.176 55.1991C11.8024 55.4508 11.5117 55.8076 11.3407 56.2244C11.1697 56.6412 11.1259 57.0993 11.215 57.5409C11.3041 57.9825 11.5221 58.3878 11.8413 58.7057C12.1606 59.0236 12.5669 59.2397 13.0089 59.3269C13.4509 59.4141 13.9088 59.3683 14.3248 59.1955C14.7408 59.0226 15.0963 58.7304 15.3464 58.3557C15.5965 57.9809 15.73 57.5405 15.73 57.09C15.7274 56.4844 15.4849 55.9045 15.0557 55.4772C14.6266 55.0499 14.0456 54.81 13.44 54.81V54.81Z" fill="#B70037"/>
<path d="M45.2 60.87C44.4533 60.866 43.7244 60.641 43.1054 60.2233C42.4864 59.8055 42.0051 59.2138 41.722 58.5227C41.439 57.8317 41.367 57.0723 41.5151 56.3404C41.6632 55.6084 42.0248 54.9368 42.5542 54.4101C43.0836 53.8835 43.7572 53.5255 44.4899 53.3812C45.2226 53.237 45.9816 53.313 46.6711 53.5997C47.3607 53.8864 47.9498 54.3709 48.3643 54.992C48.7788 55.6132 49 56.3432 49 57.09C49 57.5881 48.9016 58.0813 48.7104 58.5412C48.5191 59.0011 48.2389 59.4187 47.8858 59.77C47.5327 60.1212 47.1136 60.3992 46.6527 60.588C46.1918 60.7768 45.6981 60.8726 45.2 60.87V60.87ZM45.2 54.81C44.7491 54.81 44.3082 54.9437 43.9333 55.1942C43.5584 55.4448 43.2661 55.8009 43.0936 56.2175C42.921 56.6341 42.8758 57.0925 42.9638 57.5348C43.0518 57.9771 43.2689 58.3833 43.5878 58.7022C43.9067 59.0211 44.3129 59.2382 44.7552 59.3262C45.1975 59.4142 45.6559 59.369 46.0725 59.1964C46.4891 59.0239 46.8452 58.7316 47.0957 58.3567C47.3463 57.9818 47.48 57.5409 47.48 57.09C47.48 56.4853 47.2398 55.9054 46.8122 55.4778C46.3846 55.0502 45.8047 54.81 45.2 54.81Z" fill="#B70037"/>
<path d="M66 45.5C64.9983 45.4974 64.0384 45.0983 63.3301 44.3899C62.6217 43.6816 62.2226 42.7217 62.22 41.72C62.2174 41.2224 62.3133 40.7292 62.5022 40.2688C62.6911 39.8085 62.9692 39.3901 63.3206 39.0377C63.672 38.6854 64.0897 38.4061 64.5496 38.216C65.0094 38.0259 65.5024 37.9287 66 37.93V37.93C66.5134 37.9036 67.0268 37.9819 67.509 38.1602C67.9912 38.3385 68.4321 38.6131 68.8048 38.9671C69.1776 39.3212 69.4744 39.7474 69.6772 40.2198C69.88 40.6922 69.9846 41.2009 69.9846 41.715C69.9846 42.2291 69.88 42.7378 69.6772 43.2102C69.4744 43.6826 69.1776 44.1088 68.8048 44.4629C68.4321 44.8169 67.9912 45.0915 67.509 45.2698C67.0268 45.4481 66.5134 45.5264 66 45.5ZM66 39.43C65.4201 39.4684 64.8765 39.7258 64.4794 40.1501C64.0822 40.5744 63.8612 41.1338 63.8612 41.715C63.8612 42.2962 64.0822 42.8556 64.4794 43.2799C64.8765 43.7042 65.4201 43.9616 66 44V44C66.3128 44.0207 66.6265 43.977 66.9217 43.8715C67.2169 43.7661 67.4873 43.6011 67.7161 43.3869C67.945 43.1727 68.1274 42.9138 68.2522 42.6262C68.3769 42.3386 68.4412 42.0285 68.4412 41.715C68.4412 41.4015 68.3769 41.0914 68.2522 40.8038C68.1274 40.5162 67.945 40.2573 67.7161 40.0431C67.4873 39.8289 67.2169 39.664 66.9217 39.5585C66.6265 39.453 66.3128 39.4093 66 39.43V39.43Z" fill="#B70037"/>
<path d="M66 45.5C65.25 45.5 64.5168 45.2775 63.8934 44.8606C63.2699 44.4437 62.7841 43.8512 62.4976 43.1581C62.211 42.4649 62.1365 41.7024 62.2836 40.9669C62.4306 40.2315 62.7926 39.5562 63.3236 39.0265C63.8547 38.4969 64.5309 38.1367 65.2668 37.9916C66.0026 37.8465 66.765 37.923 67.4573 38.2114C68.1497 38.4998 68.7409 38.9871 69.1561 39.6117C69.5714 40.2362 69.792 40.97 69.79 41.72C69.7874 42.7234 69.3869 43.6849 68.6764 44.3935C67.9659 45.1021 67.0034 45.5 66 45.5V45.5ZM66 39.43C65.5471 39.43 65.1043 39.5643 64.7277 39.8159C64.3512 40.0676 64.0576 40.4252 63.8843 40.8437C63.711 41.2621 63.6656 41.7225 63.754 42.1668C63.8424 42.611 64.0605 43.019 64.3807 43.3393C64.701 43.6595 65.109 43.8776 65.5532 43.966C65.9975 44.0544 66.4579 44.009 66.8763 43.8357C67.2948 43.6624 67.6524 43.3688 67.9041 42.9923C68.1557 42.6157 68.29 42.1729 68.29 41.72C68.29 41.1127 68.0487 40.5302 67.6193 40.1007C67.1898 39.6713 66.6073 39.43 66 39.43Z" fill="#B70037"/>
<path d="M24.25 29.2L4.08 16L11 9L24.25 29.2ZM6.44 15.71L19 24L10.75 11.4L6.44 15.71Z" fill="#B70037"/>
<path d="M22.9 33.28H4V25.46L22.9 33.28ZM5.5 31.78H15.34L5.5 27.71V31.78Z" fill="#B70037"/>
<path d="M27.28 25.9L19.46 7H27.28V25.9ZM21.71 8.5L25.78 18.34V8.5H21.71Z" fill="#B70037"/>
<path d="M70.38 57.84H67.9C65.51 57.84 63.71 54.73 63.09 53.5H57.3V52H64L64.2 52.45C64.66 53.45 66.3 56.34 67.86 56.34H70.34C70.8173 56.3493 71.2917 56.2633 71.7353 56.0871C72.179 55.9108 72.5831 55.6479 72.9239 55.3136C73.2647 54.9793 73.5354 54.5804 73.7202 54.1402C73.905 53.7 74.0001 53.2274 74 52.75V38.35L68.8 32.67V28L63.35 22.93H37L31.48 28.08V32.77L29.06 35.39L27.96 34.39L29.96 32.21V27.43L36.39 21.43H63.93L70.3 27.34V32.1L75.47 37.78V52.78C75.4621 54.1247 74.9223 55.4117 73.9686 56.3598C73.0149 57.3079 71.7248 57.84 70.38 57.84V57.84Z" fill="#B70037"/>
</g>
<defs>
<clipPath id="clip0">
<rect width="71.47" height="66.22" fill="white" transform="translate(4 7)"/>
</clipPath>
</defs>
</svg>
