<svg width="80" height="80" viewBox="0 0 80 80" fill="none" xmlns="http://www.w3.org/2000/svg">
<g clip-path="url(#clip0)">
<path d="M15.68 74.44H14.18V64.38L23.39 55.16L24.45 56.23L15.68 65V74.44Z" fill="#B70037"/>
<path d="M63.88 74.44H62.38V65L53.6 56.23L54.66 55.16L63.88 64.38V74.44Z" fill="#B70037"/>
<path d="M22.62 45.22H14.72L5 35.5L6.06 34.44L15.34 43.72H22.62V45.22Z" fill="#B70037"/>
<path d="M25.28 32.9H15.93L7.98 24.96L9.04 23.9L16.55 31.4H25.28V32.9Z" fill="#B70037"/>
<path d="M27.25 23.79L20.64 17.18V5H22.14V16.55L28.31 22.73L27.25 23.79Z" fill="#B70037"/>
<path d="M64.15 45.36H56.25V43.86H63.53L73.08 34.3L74.15 35.36L64.15 45.36Z" fill="#B70037"/>
<path d="M63.92 32.93H54.55V31.43H63.26L70.1 23.92L71.21 24.93L63.92 32.93Z" fill="#B70037"/>
<path d="M52.03 23.79L50.98 22.73L57.15 16.55V5H58.65V17.18L52.03 23.79Z" fill="#B70037"/>
<path d="M39.58 65.88C34.882 65.8747 30.3779 64.0061 27.0559 60.6841C23.7339 57.3621 21.8653 52.858 21.86 48.16C21.86 38.6 25 13.77 39.58 13.77C57.1 13.77 57.3 46.77 57.3 48.16C57.2947 52.858 55.4261 57.3621 52.1041 60.6841C48.7821 64.0061 44.278 65.8747 39.58 65.88ZM39.58 15.27C26.28 15.27 23.36 39.01 23.36 48.16C23.3653 52.4602 25.0759 56.5827 28.1166 59.6234C31.1573 62.6641 35.2798 64.3747 39.58 64.38C41.71 64.38 43.8192 63.9605 45.7871 63.1453C47.755 62.3302 49.5431 61.1354 51.0493 59.6293C52.5554 58.1231 53.7502 56.335 54.5653 54.3671C55.3805 52.3992 55.8 50.29 55.8 48.16C55.8 36.79 52.41 15.27 39.58 15.27V15.27Z" fill="#B70037"/>
<path d="M39.56 58.12C37.7166 58.1183 35.9172 57.5569 34.4 56.51C32.3973 55.1349 31.0205 53.0227 30.5708 50.6353C30.121 48.2479 30.6349 45.7796 32 43.77L32.62 42.87L33.24 43.78C33.9433 44.8048 34.885 45.6433 35.9842 46.2234C37.0834 46.8034 38.3071 47.1077 39.55 47.11V47.11C40.7929 47.1077 42.0166 46.8034 43.1158 46.2234C44.215 45.6433 45.1567 44.8048 45.86 43.78L46.48 42.87L47.1 43.77C48.1365 45.2986 48.6906 47.1031 48.6906 48.95C48.6906 50.7969 48.1365 52.6014 47.1 54.13C46.431 55.1293 45.5703 55.9859 44.5678 56.6502C43.5654 57.3145 42.441 57.7733 41.26 58C40.698 58.0898 40.1291 58.13 39.56 58.12V58.12ZM32.73 45.53C31.9037 47.1842 31.7036 49.0815 32.1668 50.8717C32.63 52.6619 33.7251 54.2241 35.25 55.27C36.0805 55.8383 37.0149 56.2373 37.9996 56.4444C38.9844 56.6514 40.0004 56.6624 40.9894 56.4766C41.9784 56.2909 42.9212 55.9121 43.7637 55.3619C44.6063 54.8117 45.3322 54.1009 45.9 53.27C46.6654 52.1403 47.1177 50.8279 47.2108 49.4665C47.3039 48.1051 47.0345 46.7434 46.43 45.52C45.5735 46.489 44.5206 47.2648 43.3413 47.7958C42.1621 48.3268 40.8833 48.601 39.59 48.6V48.6C38.2945 48.6025 37.0132 48.3301 35.8306 47.8009C34.6481 47.2717 33.5913 46.4977 32.73 45.53V45.53Z" fill="#B70037"/>
<path d="M36.43 8.41H34.93V15.59H36.43V8.41Z" fill="#B70037"/>
<path d="M44.13 8.41H42.63V15.91H44.13V8.41Z" fill="#B70037"/>
</g>
<defs>
<clipPath id="clip0">
<rect width="69.15" height="69.44" fill="white" transform="translate(5 5)"/>
</clipPath>
</defs>
</svg>
