<svg width="80" height="80" viewBox="0 0 80 80" fill="none" xmlns="http://www.w3.org/2000/svg">
<g clip-path="url(#clip0)">
<path d="M20.27 74.34H10.67V59.34H12.17V72.84H20.27V74.34ZM68.91 74.27H36V72.77H67.41V49.63H73V40.37L39.75 7.12L23.55 23.32V13.32H13.33V33.54L6.5 40.37V49.71H10.56V51.21H5V39.75L11.83 32.92V11.83H25.05V19.7L39.75 5L74.5 39.75V51.13H68.91V74.27ZM58.91 66.82H51.7V65.32H57.4V36.85H40V40.92H38.5V35.35H58.9L58.91 66.82Z" fill="#B70037"/>
<path d="M22.05 45.86C21.1798 45.86 20.3291 45.6019 19.6055 45.1185C18.8819 44.635 18.318 43.9478 17.9849 43.1438C17.6519 42.3398 17.5648 41.4551 17.7345 40.6016C17.9043 39.7481 18.3234 38.9641 18.9387 38.3487C19.5541 37.7334 20.3381 37.3143 21.1916 37.1445C22.0451 36.9748 22.9298 37.0619 23.7338 37.3949C24.5378 37.728 25.225 38.2919 25.7085 39.0155C26.1919 39.7391 26.45 40.5898 26.45 41.46C26.4474 42.6261 25.9829 43.7438 25.1583 44.5683C24.3338 45.3929 23.2161 45.8574 22.05 45.86V45.86ZM22.05 38.56C21.4764 38.56 20.9157 38.7301 20.4388 39.0487C19.9619 39.3674 19.5902 39.8203 19.3707 40.3502C19.1513 40.8801 19.0938 41.4632 19.2057 42.0258C19.3176 42.5883 19.5938 43.105 19.9994 43.5106C20.405 43.9162 20.9217 44.1924 21.4842 44.3043C22.0468 44.4162 22.6299 44.3587 23.1598 44.1392C23.6897 43.9198 24.1426 43.5481 24.4613 43.0712C24.7799 42.5943 24.95 42.0336 24.95 41.46C24.95 40.6909 24.6445 39.9532 24.1006 39.4094C23.5567 38.8655 22.8191 38.56 22.05 38.56Z" fill="#B70037"/>
<path d="M44.72 55.64H39.51L27.94 44H44.8C45.5404 43.9815 46.2768 44.1137 46.9645 44.3888C47.6521 44.6639 48.2766 45.076 48.8 45.6C49.3622 46.1425 49.8081 46.7938 50.1107 47.5141C50.4133 48.2344 50.5661 49.0087 50.56 49.79C50.5521 51.3374 49.9347 52.8193 48.8414 53.9144C47.7482 55.0095 46.2674 55.6295 44.72 55.64V55.64ZM40.14 54.14H44.72C45.8799 54.1374 46.9914 53.6747 47.8107 52.8536C48.6299 52.0325 49.09 50.9199 49.09 49.76C49.0946 49.1783 48.9808 48.6017 48.7556 48.0654C48.5304 47.529 48.1985 47.0441 47.78 46.64C47.3883 46.2478 46.9194 45.9412 46.4029 45.7398C45.8865 45.5384 45.3338 45.4465 44.78 45.47H31.54L40.14 54.14Z" fill="#B70037"/>
<path d="M30.64 74.34H23.94V63.43L29.46 57.91L26.36 54.75L22.88 57.81H13V51.89H20.35L26.57 45.74L27.62 46.8L20.96 53.39H14.49V56.31H22.31L26.44 52.69L31.57 57.92L25.44 64.05V72.84H29.14V66.06L34.4 60.81L42.16 68.65L49.4 61.41L46.9 58.97L42.23 63.63L36.97 58.37L38.03 57.31L42.23 61.51L46.89 56.86L51.53 61.4L42.15 70.78L34.39 62.94L30.64 66.69V74.34Z" fill="#B70037"/>
</g>
<defs>
<clipPath id="clip0">
<rect width="69.5" height="69.34" fill="white" transform="translate(5 5)"/>
</clipPath>
</defs>
</svg>
