<svg width="80" height="80" viewBox="0 0 80 80" fill="none" xmlns="http://www.w3.org/2000/svg">
<g clip-path="url(#clip0)">
<path d="M54.68 65.72H25.78V67.22H54.68V65.72Z" fill="#B70037"/>
<path d="M59.83 71.05H20.46V72.55H59.83V71.05Z" fill="#B70037"/>
<path d="M59.3 61.35H20.51L16 56.86V21.67L20.48 17.19H59.3L63.78 21.67V56.86L59.3 61.35ZM21.13 59.85H58.68L62.28 56.24V22.29L58.68 18.69H21.13L17.53 22.29V56.29L21.13 59.85Z" fill="#B70037"/>
<path d="M40.59 17.94H39.09V5.5H27.9L24.14 9.25L23.08 8.2L27.27 4H40.59V17.94Z" fill="#B70037"/>
<path d="M40.73 17.94H39.23V4H52.54L56.73 8.2L55.67 9.25L51.92 5.5H40.73V17.94Z" fill="#B70037"/>
<path d="M28.509 62.6748L16.0002 75.1835L17.0609 76.2442L29.5696 63.7355L28.509 62.6748Z" fill="#B70037"/>
<path d="M51.702 62.4407L50.6413 63.5014L63.3904 76.2505L64.4511 75.1898L51.702 62.4407Z" fill="#B70037"/>
<path d="M55.75 56.7C55.0776 56.7 54.4202 56.5006 53.8611 56.127C53.3019 55.7534 52.8662 55.2224 52.6088 54.6011C52.3515 53.9799 52.2841 53.2962 52.4153 52.6367C52.5465 51.9772 52.8703 51.3713 53.3458 50.8958C53.8213 50.4203 54.4272 50.0965 55.0867 49.9653C55.7462 49.8341 56.4299 49.9015 57.0511 50.1588C57.6724 50.4161 58.2034 50.8519 58.577 51.4111C58.9506 51.9702 59.15 52.6275 59.15 53.3C59.1474 54.2009 58.7883 55.0642 58.1513 55.7012C57.5142 56.3383 56.6509 56.6974 55.75 56.7ZM55.75 51.4C55.3742 51.4 55.0069 51.5114 54.6944 51.7202C54.382 51.929 54.1384 52.2257 53.9946 52.5729C53.8508 52.9201 53.8132 53.3021 53.8865 53.6707C53.9598 54.0392 54.1408 54.3778 54.4065 54.6435C54.6722 54.9092 55.0108 55.0902 55.3793 55.1635C55.7479 55.2368 56.1299 55.1992 56.4771 55.0554C56.8243 54.9116 57.121 54.668 57.3298 54.3556C57.5386 54.0431 57.65 53.6758 57.65 53.3C57.65 53.0505 57.6009 52.8034 57.5054 52.5729C57.4099 52.3424 57.2699 52.1329 57.0935 51.9565C56.9171 51.7801 56.7076 51.6401 56.4771 51.5446C56.2466 51.4491 55.9995 51.4 55.75 51.4V51.4Z" fill="#B70037"/>
<path d="M24.12 56.7C23.4475 56.7 22.7902 56.5006 22.2311 56.127C21.6719 55.7534 21.2362 55.2224 20.9788 54.6011C20.7215 53.9799 20.6541 53.2962 20.7853 52.6367C20.9165 51.9772 21.2403 51.3713 21.7158 50.8958C22.1913 50.4203 22.7972 50.0965 23.4567 49.9653C24.1162 49.8341 24.7999 49.9015 25.4211 50.1588C26.0424 50.4161 26.5734 50.8519 26.947 51.4111C27.3206 51.9702 27.52 52.6275 27.52 53.3C27.5174 54.2009 27.1583 55.0642 26.5213 55.7012C25.8842 56.3383 25.0209 56.6974 24.12 56.7V56.7ZM24.12 51.4C23.7434 51.396 23.3741 51.5041 23.059 51.7104C22.744 51.9168 22.4973 52.2121 22.3504 52.5589C22.2036 52.9057 22.1631 53.2884 22.2341 53.6583C22.3051 54.0281 22.4845 54.3685 22.7494 54.6363C23.0143 54.904 23.3528 55.0869 23.7219 55.1619C24.091 55.2368 24.4741 55.2004 24.8224 55.0572C25.1708 54.914 25.4687 54.6705 25.6784 54.3576C25.888 54.0448 26 53.6766 26 53.3C25.9974 52.8003 25.7992 52.3215 25.4477 51.9664C25.0963 51.6112 24.6196 51.4078 24.12 51.4V51.4Z" fill="#B70037"/>
<path d="M32.9 42.95H16.53V41.45H32.28L36.06 37.66V28.13H16.53V26.63H37.56V38.28L32.9 42.95Z" fill="#B70037"/>
<path d="M62.4 42.95H47L42.34 38.28V26.63H62.4V28.13H43.84V37.66L47.62 41.45H62.4V42.95Z" fill="#B70037"/>
</g>
<defs>
<clipPath id="clip0">
<rect width="48.45" height="72.25" fill="white" transform="translate(16 4)"/>
</clipPath>
</defs>
</svg>
