<svg width="80" height="80" viewBox="0 0 80 80" fill="none" xmlns="http://www.w3.org/2000/svg">
<g clip-path="url(#clip0)">
<path d="M22.019 44.6119L13.9651 52.6659L15.0257 53.7266L23.0797 45.6726L22.019 44.6119Z" fill="#B70037"/>
<path d="M69.46 53.42L62.05 46H21.94L5.29999 29.36L10.69 24H16.82L28.07 35.22H71.59L63.32 45.16L70.53 52.36L69.46 53.42ZM22.56 44.5H61.92L68.4 36.72H27.45L16.2 25.46H11.31L7.41999 29.36L22.56 44.5Z" fill="#B70037"/>
<path d="M63.77 24.9L51.06 12.19H38.79L26.08 24.9L25.02 23.84L38.17 10.69H51.68L64.83 23.84L63.77 24.9Z" fill="#B70037"/>
<path d="M61.54 20.89H28.29V22.39H61.54V20.89Z" fill="#B70037"/>
<path d="M45.68 21.64H44.18V33.18H45.68V21.64Z" fill="#B70037"/>
<path d="M45.68 6H44.18V11.44H45.68V6Z" fill="#B70037"/>
<path d="M28.39 63.75H27.6C23.4884 63.5732 19.5938 61.8562 16.69 58.94C13.5802 62.0223 9.37853 63.7511 5 63.75V62.25C7.09539 62.2493 9.16757 61.8114 11.0841 60.9642C13.0006 60.117 14.7192 58.8793 16.13 57.33L16.69 56.72L17.24 57.33C19.9312 60.2777 23.6813 62.0381 27.6683 62.2256C31.6554 62.413 35.5541 61.0122 38.51 58.33C38.86 58.01 39.19 57.68 39.51 57.33L40.06 56.72L40.62 57.33C42.0308 58.8793 43.7494 60.117 45.6659 60.9642C47.5824 61.8114 49.6546 62.2493 51.75 62.25V63.75C47.3686 63.7458 43.1666 62.0096 40.06 58.92C39.89 59.1 39.7 59.27 39.52 59.44C36.4794 62.2177 32.5084 63.7554 28.39 63.75V63.75Z" fill="#B70037"/>
<path d="M75 63.75C70.6186 63.7458 66.4166 62.0096 63.31 58.92C60.2077 62.01 56.0086 63.7464 51.63 63.75V62.25C53.7251 62.2475 55.7967 61.8087 57.7129 60.9617C59.6292 60.1146 61.348 58.8778 62.76 57.33L63.31 56.72L63.87 57.33C65.2808 58.8793 66.9995 60.117 68.9159 60.9642C70.8324 61.8114 72.9046 62.2493 75 62.25V63.75Z" fill="#B70037"/>
<path d="M28.39 74.48H27.6C23.4905 74.2945 19.5989 72.5788 16.69 69.67C13.5802 72.7523 9.37853 74.4811 5 74.48V73C7.0951 72.9975 9.16671 72.5587 11.0829 71.7117C12.9992 70.8646 14.718 69.6278 16.13 68.08L16.69 67.47L17.24 68.08C19.9298 71.03 23.6803 72.7922 27.6681 72.9797C31.656 73.1672 35.5553 71.7647 38.51 69.08C38.8608 68.7646 39.1946 68.4308 39.51 68.08L40.06 67.47L40.62 68.08C42.032 69.6278 43.7508 70.8646 45.6671 71.7117C47.5833 72.5587 49.6549 72.9975 51.75 73V74.5C47.3686 74.4958 43.1666 72.7596 40.06 69.67C39.88 69.85 39.7 70.02 39.52 70.18C36.4799 72.9574 32.5078 74.492 28.39 74.48V74.48Z" fill="#B70037"/>
<path d="M75 74.48C70.6186 74.4758 66.4166 72.7396 63.31 69.65C60.2077 72.74 56.0086 74.4764 51.63 74.48V73C53.7248 72.9957 55.7959 72.5561 57.7118 71.7091C59.6278 70.8622 61.3468 69.6264 62.76 68.08L63.31 67.47L63.87 68.08C65.282 69.6278 67.0008 70.8646 68.9171 71.7117C70.8333 72.5587 72.9049 72.9975 75 73V74.48Z" fill="#B70037"/>
</g>
<defs>
<clipPath id="clip0">
<rect width="70" height="68.48" fill="white" transform="translate(5 6)"/>
</clipPath>
</defs>
</svg>
