<svg width="80" height="80" viewBox="0 0 80 80" fill="none" xmlns="http://www.w3.org/2000/svg">
<g clip-path="url(#clip0)">
<path d="M53.75 63.87H30.32V62.37H53.75C54.3481 62.331 54.9089 62.0659 55.3187 61.6286C55.7284 61.1912 55.9565 60.6143 55.9565 60.015C55.9565 59.4157 55.7284 58.8388 55.3187 58.4014C54.9089 57.9641 54.3481 57.699 53.75 57.66H35.75L30.15 52H15.07V50.5H30.77L36.41 56.14H53.75C54.7385 56.1904 55.6698 56.6185 56.3516 57.3359C57.0334 58.0533 57.4136 59.0053 57.4136 59.995C57.4136 60.9847 57.0334 61.9367 56.3516 62.6541C55.6698 63.3715 54.7385 63.7996 53.75 63.85V63.87Z" fill="#B70037"/>
<path d="M56.59 71.78H15V70.28H56L71.6 54.65C71.8927 54.3591 72.1249 54.0132 72.2834 53.6322C72.4419 53.2512 72.5235 52.8426 72.5235 52.43C72.5235 52.0174 72.4419 51.6088 72.2834 51.2278C72.1249 50.8468 71.8927 50.5009 71.6 50.21C71.0054 49.6362 70.2113 49.3156 69.385 49.3156C68.5587 49.3156 67.7646 49.6362 67.17 50.21L59.51 57.87L58.45 56.81L66.1 49.15C66.9699 48.2788 68.1503 47.7888 69.3815 47.7878C70.6126 47.7869 71.7938 48.2751 72.665 49.145C73.5362 50.0149 74.0262 51.1953 74.0272 52.4265C74.0281 53.6576 73.5399 54.8388 72.67 55.71L56.59 71.78Z" fill="#B70037"/>
<path d="M15.8 74.33H5V47.71H15.8V74.33ZM6.5 72.83H14.3V49.21H6.5V72.83Z" fill="#B70037"/>
<path d="M61.81 44.71H59.09C57.7687 44.7093 56.4918 44.2329 55.4929 43.3681C54.494 42.5032 53.8398 41.3076 53.65 40H25.65C25.469 41.3149 24.8187 42.52 23.8189 43.3929C22.8191 44.2659 21.5373 44.7479 20.21 44.75H17.53C16.8023 44.7553 16.0808 44.6159 15.4075 44.3399C14.7342 44.0639 14.1224 43.6567 13.6079 43.1422C13.0933 42.6276 12.6862 42.0158 12.4101 41.3425C12.1341 40.6692 11.9947 39.9477 12 39.22V22.85L17.63 16.74V11.53L24.63 5.00999H54.73L61.65 11.44V16.65L67.31 22.86V39.22C67.3074 40.677 66.7267 42.0733 65.6956 43.1026C64.6644 44.1319 63.267 44.71 61.81 44.71V44.71ZM24.24 38.47H55.1V39.22C55.1 40.2809 55.5214 41.2983 56.2716 42.0484C57.0217 42.7986 58.0392 43.22 59.1 43.22H61.82C62.8809 43.22 63.8983 42.7986 64.6484 42.0484C65.3986 41.2983 65.82 40.2809 65.82 39.22V23.43L60.16 17.22V12.08L54.16 6.49999H25.26L19.18 12.19V17.32L13.54 23.44V39.22C13.54 40.2809 13.9615 41.2983 14.7116 42.0484C15.4617 42.7986 16.4792 43.22 17.54 43.22H20.26C21.3209 43.22 22.3383 42.7986 23.0885 42.0484C23.8386 41.2983 24.26 40.2809 24.26 39.22L24.24 38.47Z" fill="#B70037"/>
<path d="M22.3 31.21C21.495 31.21 20.7081 30.9713 20.0388 30.5241C19.3695 30.0769 18.8478 29.4412 18.5398 28.6975C18.2317 27.9538 18.1511 27.1355 18.3082 26.346C18.4652 25.5565 18.8529 24.8313 19.4221 24.2621C19.9913 23.6929 20.7165 23.3052 21.506 23.1482C22.2955 22.9912 23.1138 23.0718 23.8575 23.3798C24.6012 23.6879 25.2368 24.2095 25.6841 24.8788C26.1313 25.5481 26.37 26.335 26.37 27.14C26.37 28.2194 25.9412 29.2546 25.1779 30.0179C24.4146 30.7812 23.3794 31.21 22.3 31.21V31.21ZM22.3 24.57C21.7917 24.57 21.2948 24.7207 20.8722 25.0031C20.4495 25.2855 20.1201 25.6869 19.9256 26.1565C19.7311 26.6261 19.6802 27.1428 19.7794 27.6414C19.8785 28.1399 20.1233 28.5978 20.4827 28.9573C20.8421 29.3167 21.3001 29.5614 21.7986 29.6606C22.2971 29.7598 22.8139 29.7089 23.2835 29.5144C23.7531 29.3198 24.1545 28.9904 24.4369 28.5678C24.7193 28.1452 24.87 27.6483 24.87 27.14C24.87 26.4584 24.5992 25.8047 24.1172 25.3227C23.6353 24.8408 22.9816 24.57 22.3 24.57V24.57Z" fill="#B70037"/>
<path d="M57 31.21C56.195 31.21 55.4081 30.9713 54.7388 30.5241C54.0695 30.0769 53.5479 29.4412 53.2398 28.6975C52.9318 27.9538 52.8512 27.1355 53.0082 26.346C53.1652 25.5565 53.5529 24.8313 54.1221 24.2621C54.6913 23.6929 55.4165 23.3052 56.206 23.1482C56.9955 22.9912 57.8138 23.0718 58.5575 23.3798C59.3012 23.6879 59.9369 24.2095 60.3841 24.8788C60.8313 25.5481 61.07 26.335 61.07 27.14C61.0674 28.2186 60.6377 29.2523 59.875 30.015C59.1123 30.7777 58.0786 31.2074 57 31.21ZM57 24.57C56.4917 24.57 55.9948 24.7207 55.5722 25.0031C55.1495 25.2855 54.8201 25.6869 54.6256 26.1565C54.4311 26.6261 54.3802 27.1428 54.4794 27.6414C54.5785 28.1399 54.8233 28.5978 55.1827 28.9573C55.5421 29.3167 56.0001 29.5614 56.4986 29.6606C56.9971 29.7598 57.5139 29.7089 57.9835 29.5144C58.4531 29.3198 58.8545 28.9904 59.1369 28.5678C59.4193 28.1452 59.57 27.6483 59.57 27.14C59.5674 26.4592 59.2957 25.807 58.8143 25.3256C58.3329 24.8442 57.6808 24.5726 57 24.57V24.57Z" fill="#B70037"/>
</g>
<defs>
<clipPath id="clip0">
<rect width="69.02" height="69.33" fill="white" transform="translate(5 5)"/>
</clipPath>
</defs>
</svg>
