<svg width="80" height="80" viewBox="0 0 80 80" fill="none" xmlns="http://www.w3.org/2000/svg">
<g clip-path="url(#clip0)">
<path d="M72.9 72.1C72.3996 72.1045 71.9032 72.0096 71.4397 71.8208C70.9762 71.632 70.5548 71.353 70.2 71L60.9 61.7L62 60.62L71.3 69.92C71.7385 70.3376 72.3228 70.5672 72.9283 70.5598C73.5338 70.5524 74.1124 70.3086 74.5405 69.8805C74.9687 69.4523 75.2125 68.8737 75.2198 68.2683C75.2272 67.6628 74.9976 67.0785 74.58 66.64L65.28 57.34L66.34 56.28L75.64 65.58C76.3557 66.2963 76.7577 67.2674 76.7577 68.28C76.7577 69.2926 76.3557 70.2637 75.64 70.98C75.2822 71.3414 74.855 71.6269 74.3842 71.8194C73.9134 72.0118 73.4086 72.1073 72.9 72.1Z" fill="#B70037"/>
<path d="M60.66 63.9H49.51L41.63 56V44.86L49.51 37H60.66L68.55 44.88V56L60.66 63.9ZM50.13 62.4H60L67 55.4V45.48L60 38.48H50.13L43.13 45.48V55.39L50.13 62.4Z" fill="#B70037"/>
<path d="M12.53 48.34H9.7C8.18827 48.34 6.73845 47.7395 5.66949 46.6705C4.60053 45.6016 4 44.1517 4 42.64V25.64L9.88 19.27V13.79L17.15 7H48.47L55.67 13.69V19.11L61.57 25.59V34.4H60.07V26.17L54.17 19.69V14.34L47.88 8.5H17.74L11.38 14.45V19.81L5.5 26.18V42.64C5.5 43.7539 5.9425 44.8222 6.73015 45.6098C7.5178 46.3975 8.58609 46.84 9.7 46.84H12.53C13.6439 46.84 14.7122 46.3975 15.4998 45.6098C16.2875 44.8222 16.73 43.7539 16.73 42.64V41.89H40.05V43.39H18.18C17.9962 44.7589 17.3224 46.0147 16.2836 46.9249C15.2447 47.835 13.9112 48.3378 12.53 48.34V48.34Z" fill="#B70037"/>
<path d="M14.67 34.26C13.8374 34.26 13.0234 34.0131 12.3311 33.5505C11.6387 33.0879 11.0991 32.4304 10.7805 31.6611C10.4618 30.8918 10.3785 30.0453 10.5409 29.2287C10.7034 28.412 11.1043 27.6619 11.6931 27.0731C12.2819 26.4843 13.032 26.0833 13.8487 25.9209C14.6654 25.7584 15.5118 25.8418 16.2811 26.1605C17.0504 26.4791 17.7079 27.0187 18.1705 27.711C18.6331 28.4034 18.88 29.2173 18.88 30.05C18.8774 31.1657 18.433 32.235 17.644 33.024C16.8551 33.813 15.7858 34.2574 14.67 34.26ZM14.67 27.34C14.134 27.34 13.6101 27.4989 13.1644 27.7967C12.7188 28.0945 12.3714 28.5177 12.1663 29.0129C11.9612 29.5081 11.9075 30.053 12.0121 30.5787C12.1167 31.1044 12.3748 31.5873 12.7538 31.9663C13.1328 32.3453 13.6156 32.6034 14.1413 32.7079C14.667 32.8125 15.2119 32.7588 15.7071 32.5537C16.2023 32.3486 16.6255 32.0013 16.9233 31.5556C17.2211 31.1099 17.38 30.586 17.38 30.05C17.38 29.3313 17.0945 28.642 16.5863 28.1337C16.0781 27.6255 15.3888 27.34 14.67 27.34V27.34Z" fill="#B70037"/>
<path d="M50.9 34.26C49.9296 34.253 48.9916 33.9102 48.2453 33.2899C47.4991 32.6696 46.9907 31.81 46.8065 30.8572C46.6223 29.9045 46.7738 28.9173 47.235 28.0636C47.6963 27.2098 48.439 26.5422 49.3369 26.1741C50.2348 25.8059 51.2324 25.7601 52.1602 26.0443C53.0881 26.3285 53.8889 26.9252 54.4266 27.733C54.9642 28.5409 55.2056 29.51 55.1096 30.4756C55.0136 31.4412 54.5862 32.3438 53.9 33.03C53.5057 33.4227 53.0377 33.7335 52.5228 33.9446C52.008 34.1557 51.4564 34.2629 50.9 34.26ZM50.9 27.34C50.364 27.34 49.84 27.4989 49.3944 27.7967C48.9487 28.0945 48.6014 28.5177 48.3963 29.0129C48.1911 29.5081 48.1375 30.053 48.2421 30.5787C48.3466 31.1044 48.6047 31.5873 48.9837 31.9663C49.3627 32.3453 49.8456 32.6034 50.3713 32.7079C50.897 32.8125 51.4419 32.7588 51.937 32.5537C52.4322 32.3486 52.8555 32.0013 53.1533 31.5556C53.451 31.1099 53.61 30.586 53.61 30.05C53.61 29.3313 53.3245 28.642 52.8162 28.1337C52.308 27.6255 51.6187 27.34 50.9 27.34V27.34Z" fill="#B70037"/>
</g>
<defs>
<clipPath id="clip0">
<rect width="72.72" height="65.1" fill="white" transform="translate(4 7)"/>
</clipPath>
</defs>
</svg>
