<svg width="80" height="80" viewBox="0 0 80 80" fill="none" xmlns="http://www.w3.org/2000/svg">
<g clip-path="url(#clip0)">
<path d="M66.88 75.81L43.64 52.57L33.42 52.64L25.31 44.52L25.25 33.82L33.15 42.32L39.59 39.88L42.24 33.88L34.33 25.24L44.52 25.3L52.64 33.41L52.57 43.63L75.81 66.88L66.88 75.81ZM44.26 51.06L66.88 73.69L73.69 66.88L51.06 44.26L51.13 34L43.9 26.81H37.76L44 33.6L40.71 41.06L32.71 44.06L26.71 37.64V43.88L34 51.13L44.26 51.06Z" fill="#B70037"/>
<path d="M46.71 72.66H30.96V65.15L25.85 62.96L20.48 68.32L9.34 57.19L14.38 52.14L12.17 46.71H5V30.96H12.3L14.56 25.7L9.34 20.48L20.48 9.34L25.59 14.45L30.96 12.27V5H46.71V12.45L51.86 14.67L57.19 9.34L68.32 20.48L63.16 25.64L65.25 30.96H72.66V46.71H65.2L63.31 51.11L61.93 50.52L64.21 45.21H71.16V32.46H64.22L61.41 25.27L66.2 20.48L57.19 11.46L52.2 16.45L45.21 13.44V6.5H32.46V13.28L25.23 16.21L20.48 11.46L11.46 20.48L16.34 25.36L13.29 32.46H6.5V45.21H13.18L16.15 52.5L11.46 57.19L20.48 66.2L25.5 61.18L32.46 64.16V71.16H45.21V64.32L50.77 62.14L51.31 63.54L46.71 65.34V72.66Z" fill="#B70037"/>
<path d="M31.1 57.26L20.27 46.43L20.18 31.3L31.32 20.18L46.43 20.27L57.26 31.1L56.2 32.16L45.81 21.77L31.94 21.69L21.68 31.92L21.77 45.81L32.16 56.2L31.1 57.26Z" fill="#B70037"/>
</g>
<defs>
<clipPath id="clip0">
<rect width="70.81" height="70.81" fill="white" transform="translate(5 5)"/>
</clipPath>
</defs>
</svg>
