<svg width="80" height="80" viewBox="0 0 80 80" fill="none" xmlns="http://www.w3.org/2000/svg">
<g clip-path="url(#clip0)">
<path d="M34.78 77.14L3 45.36L28.38 20L60.16 51.77L34.78 77.14ZM5.12 45.36L34.78 75L58 51.77L28.38 22.11L5.12 45.36Z" fill="#B70037"/>
<path d="M74.18 63.22H53.59V61.72H72.68V17.46L62.72 7.5H28.38V15.92H26.88V6H63.34L74.18 16.84V63.22Z" fill="#B70037"/>
<path d="M73.43 19.44H61.27V6.75H62.77V17.94H73.43V19.44Z" fill="#B70037"/>
<path d="M20.856 35.6464L19.7953 36.7071L30.8616 47.7733L31.9222 46.7126L20.856 35.6464Z" fill="#B70037"/>
<path d="M30.8545 35.6464L19.7883 46.7126L20.8489 47.7733L31.9152 36.7071L30.8545 35.6464Z" fill="#B70037"/>
<path d="M41.9046 45.4158L28.215 59.1054L29.2757 60.166L42.9653 46.4765L41.9046 45.4158Z" fill="#B70037"/>
<path d="M47.7689 51.2687L34.0793 64.9583L35.14 66.019L48.8296 52.3294L47.7689 51.2687Z" fill="#B70037"/>
<path d="M52.36 40.62L51.3 39.56L61.53 29.33V26.38L58.85 23.7H54.59L50.42 27.88L46.18 23.64H41.75L38.85 26.54L37.79 25.48L41.13 22.14H46.8L50.42 25.75L53.97 22.2H59.47L63.03 25.76V29.95L52.36 40.62Z" fill="#B70037"/>
</g>
<defs>
<clipPath id="clip0">
<rect width="71.18" height="71.14" fill="white" transform="translate(3 6)"/>
</clipPath>
</defs>
</svg>
