<svg width="80" height="80" viewBox="0 0 80 80" fill="none" xmlns="http://www.w3.org/2000/svg">
<g clip-path="url(#clip0)">
<path d="M65.5 74H14V46.17L20.22 39.87H30.53L39.75 49.31L49 39.87H59.28L65.5 46.17V74ZM15.5 72.5H64V46.78L58.65 41.37H49.65L39.75 51.46L29.9 41.37H20.9L15.5 46.78V72.5Z" fill="#B70037"/>
<path d="M59.12 54.77H51.06V56.27H59.12V54.77Z" fill="#B70037"/>
<path d="M35.21 46.55L34.15 45.49L39.73 39.9L45.32 45.49L44.26 46.55L39.73 42.02L35.21 46.55Z" fill="#B70037"/>
<path d="M40.5 50.38H39V72.95H40.5V50.38Z" fill="#B70037"/>
<path d="M35.19 55.9L20.02 41.16L21.06 40.08L35.18 53.8L44.67 44.3L45.73 45.36L35.19 55.9Z" fill="#B70037"/>
<path d="M44.32 55.9L33.78 45.36L34.84 44.3L44.34 53.8L58.45 40.08L59.5 41.16L44.32 55.9Z" fill="#B70037"/>
<path d="M39.92 37.94C36.6162 37.9374 33.4485 36.6238 31.1124 34.2876C28.7762 31.9515 27.4626 28.7838 27.46 25.48V16.74H29V25.48C29.2347 28.2251 30.4911 30.7822 32.5206 32.6455C34.55 34.5089 37.2049 35.5428 39.96 35.5428C42.7151 35.5428 45.37 34.5089 47.3994 32.6455C49.4289 30.7822 50.6852 28.2251 50.92 25.48V16.74H52.42V25.48C52.4187 27.1193 52.0942 28.7422 51.465 30.2559C50.8359 31.7697 49.9145 33.1445 48.7535 34.3018C47.5925 35.4591 46.2147 36.3761 44.699 37.0004C43.1832 37.6246 41.5593 37.9439 39.92 37.94V37.94Z" fill="#B70037"/>
<path d="M52.38 19.67H27.46V5H52.38V19.67ZM29 18.17H50.88V6.5H29V18.17Z" fill="#B70037"/>
<path d="M40.48 9.44H38.98V15.71H40.48V9.44Z" fill="#B70037"/>
<path d="M42.87 11.82H36.6V13.32H42.87V11.82Z" fill="#B70037"/>
</g>
<defs>
<clipPath id="clip0">
<rect width="51.5" height="69.04" fill="white" transform="translate(14 5)"/>
</clipPath>
</defs>
</svg>
