<svg width="80" height="80" viewBox="0 0 80 80" fill="none" xmlns="http://www.w3.org/2000/svg">
<g clip-path="url(#clip0)">
<path d="M10.39 75.27C9.12572 75.2706 7.88966 74.8962 6.83825 74.1941C5.78684 73.492 4.96732 72.4938 4.48342 71.3258C3.99951 70.1578 3.87296 68.8725 4.11978 67.6325C4.36661 66.3925 4.97571 65.2537 5.87001 64.36L15.49 54.74C15.49 53.82 15.49 51.04 15.49 49.13V48.82L60.33 4H66.89L75.31 12.42V19L30.49 63.8H30.18H24.53L14.91 73.4C14.3173 73.9946 13.6128 74.466 12.837 74.7869C12.0612 75.1079 11.2296 75.2721 10.39 75.27V75.27ZM17 49.44C17 51.76 17 55.05 17 55.05V55.36L6.93001 65.42C6.01236 66.3376 5.49683 67.5822 5.49683 68.88C5.49683 70.1777 6.01236 71.4223 6.93001 72.34C7.84765 73.2576 9.09225 73.7732 10.39 73.7732C11.6878 73.7732 12.9324 73.2576 13.85 72.34L23.91 62.28H24.22H29.87L73.81 18.36V13L66.27 5.5H61L17 49.44Z" fill="#B70037"/>
<path d="M65.3646 12.8027L10.3022 67.8651L11.3628 68.9258L66.4252 13.8634L65.3646 12.8027Z" fill="#B70037"/>
<path d="M28.5004 36.8774L27.4398 37.938L31.8945 42.3928L32.9552 41.3321L28.5004 36.8774Z" fill="#B70037"/>
<path d="M43.0304 22.3488L41.9698 23.4095L46.4246 27.8643L47.4852 26.8036L43.0304 22.3488Z" fill="#B70037"/>
<path d="M35.7215 29.6641L34.6607 30.7246L39.1147 35.1801L40.1755 34.1196L35.7215 29.6641Z" fill="#B70037"/>
<path d="M50.1951 15.2004L49.1342 16.2609L53.5882 20.7164L54.6491 19.656L50.1951 15.2004Z" fill="#B70037"/>
</g>
<defs>
<clipPath id="clip0">
<rect width="71.31" height="71.27" fill="white" transform="translate(4 4)"/>
</clipPath>
</defs>
</svg>
