<svg width="80" height="80" viewBox="0 0 80 80" fill="none" xmlns="http://www.w3.org/2000/svg">
<g clip-path="url(#clip0)">
<path d="M23.54 69.71L11.35 57.52L49.35 19.52L61.55 31.72L23.54 69.71ZM13.47 57.52L23.54 67.59L59.44 31.7L49.36 21.63L13.47 57.52Z" fill="#B70037"/>
<path d="M66.9757 12.7775L45.3312 34.4221L46.3918 35.4827L68.0364 13.8382L66.9757 12.7775Z" fill="#B70037"/>
<path d="M60.2653 4.99873L59.2047 6.05939L74.6691 21.5238L75.7297 20.4632L60.2653 4.99873Z" fill="#B70037"/>
<path d="M41.0024 28.9224L39.9417 29.9831L51.0716 41.1129L52.1323 40.0523L41.0024 28.9224Z" fill="#B70037"/>
<path d="M39.8 51.94H17.24V53.44H39.8V51.94Z" fill="#B70037"/>
<path d="M17.3595 62.4599L4.99928 74.8201L6.05994 75.8808L18.4202 63.5206L17.3595 62.4599Z" fill="#B70037"/>
<path d="M35.438 34.4878L34.3773 35.5484L38.1038 39.2749L39.1644 38.2142L35.438 34.4878Z" fill="#B70037"/>
<path d="M30.028 39.8945L28.9673 40.9552L32.6938 44.6816L33.7544 43.621L30.028 39.8945Z" fill="#B70037"/>
<path d="M25.198 44.7293L24.1373 45.79L27.8638 49.5164L28.9244 48.4558L25.198 44.7293Z" fill="#B70037"/>
</g>
<defs>
<clipPath id="clip0">
<rect width="70.73" height="70.88" fill="white" transform="translate(5 5)"/>
</clipPath>
</defs>
</svg>
