<svg width="80" height="80" viewBox="0 0 80 80" fill="none" xmlns="http://www.w3.org/2000/svg">
<g clip-path="url(#clip0)">
<path d="M31.1 43.59H11V12.18L18.19 5H35.56L42.74 12.18V33.25H41.24V12.81L34.94 6.5H18.81L12.5 12.81V42.09H31.1V43.59Z" fill="#B70037"/>
<path d="M34.63 75.4H18.8L12.11 68.71V42.09H30.5V43.59H13.61V68.09L19.42 73.9H34.63V75.4Z" fill="#B70037"/>
<path d="M58 75.64H41.81L30.35 64.18V48L41.81 36.52H58L69.47 48V64.2L58 75.64ZM42.42 74.14H57.42L68 63.56V48.56L57.39 38H42.39L31.85 48.6V63.6L42.42 74.14Z" fill="#B70037"/>
<path d="M58 75.64H41.81L30.35 64.18V48L41.81 36.52H58L69.47 48V64.2L58 75.64ZM42.42 74.14H57.42L68 63.56V48.56L57.39 38H42.39L31.85 48.6V63.6L42.42 74.14Z" fill="#B70037"/>
<path d="M62.6829 42.2445L36.0815 68.8458L37.1422 69.9065L63.7436 43.3051L62.6829 42.2445Z" fill="#B70037"/>
</g>
<defs>
<clipPath id="clip0">
<rect width="58.47" height="70.64" fill="white" transform="translate(11 5)"/>
</clipPath>
</defs>
</svg>
