<svg width="80" height="80" viewBox="0 0 80 80" fill="none" xmlns="http://www.w3.org/2000/svg">
<g clip-path="url(#clip0)">
<path d="M25.79 42C26.29 41.55 26.79 41.08 27.41 40.58C28.03 40.08 28.57 39.58 29.16 39.04C29.75 38.5 30.35 38.04 30.82 37.53C31.2495 37.1273 31.6442 36.6891 32 36.22C32.3007 35.8321 32.5402 35.4005 32.71 34.94C32.8729 34.4914 32.9542 34.0173 32.95 33.54C32.9843 33.198 32.9422 32.8526 32.8267 32.5288C32.7112 32.205 32.5251 31.911 32.2821 31.6679C32.039 31.4249 31.7449 31.2388 31.4212 31.1233C31.0974 31.0078 30.752 30.9657 30.41 31C29.9876 30.9897 29.5661 31.0437 29.16 31.16C28.8436 31.2498 28.5503 31.4067 28.3 31.62C28.0584 31.8326 27.8613 32.0909 27.72 32.38C27.5494 32.7192 27.4121 33.0742 27.31 33.44L25.68 33.19C25.7953 32.7143 25.9595 32.2519 26.17 31.81C26.3672 31.3576 26.6489 30.9469 27 30.6C27.4 30.234 27.8692 29.9518 28.38 29.77C29.0202 29.5361 29.6986 29.4242 30.38 29.44C31.0096 29.4297 31.6359 29.5313 32.23 29.74C32.7326 29.9155 33.1926 30.1949 33.58 30.56C33.9411 30.9101 34.224 31.3327 34.41 31.8C34.6031 32.3179 34.6981 32.8673 34.69 33.42C34.6962 33.9799 34.6118 34.5371 34.44 35.07C34.2658 35.6107 34.0131 36.1228 33.69 36.59C33.2995 37.1349 32.8647 37.6466 32.39 38.12C31.86 38.64 31.24 39.22 30.51 39.83L29.34 40.83C28.94 41.16 28.55 41.5 28.17 41.83H34.9L34.64 43.41H25.79V42Z" fill="#B70037"/>
<path d="M37 38.74L43.48 29.8H45.16V38.61H47L46.74 40H45.11V43.39H43.45V40H37V38.74ZM43.5 38.61V32.06L38.79 38.63L43.5 38.61Z" fill="#B70037"/>
<path d="M42.53 76H29.62L19.33 65.67L32.66 52.34L40.47 60.16L59.17 41.45L51.36 33.64L64.69 20.31L75 30.61V43.51L42.53 76ZM30.25 74.5H41.91L73.49 42.89V31.23L64.69 22.43L53.48 33.64L61.29 41.45L40.47 62.28L32.66 54.46L21.45 65.67L30.25 74.5Z" fill="#B70037"/>
<path d="M37.72 5H36.22V13.63H37.72V5Z" fill="#B70037"/>
<path d="M25.1679 7.2542L23.7871 7.8403L27.1591 15.7843L28.5399 15.1982L25.1679 7.2542Z" fill="#B70037"/>
<path d="M14.8931 13.832L13.8325 14.8927L19.9348 20.995L20.9954 19.9344L14.8931 13.832Z" fill="#B70037"/>
<path d="M7.61251 24.2962L7.0506 25.687L15.0522 28.9199L15.6141 27.5291L7.61251 24.2962Z" fill="#B70037"/>
<path d="M48.2482 7.05249L45.0204 15.0454L46.4113 15.607L49.639 7.61416L48.2482 7.05249Z" fill="#B70037"/>
<path d="M13.63 36.22H5V37.72H13.63V36.22Z" fill="#B70037"/>
<path d="M15.1955 45.4018L7.25092 48.7724L7.83677 50.1533L15.7813 46.7827L15.1955 45.4018Z" fill="#B70037"/>
<path d="M20.2055 53.2394L14.2138 59.4504L15.2934 60.4919L21.285 54.2808L20.2055 53.2394Z" fill="#B70037"/>
<path d="M58.6448 13.4534L52.6478 19.6592L53.7264 20.7016L59.7235 14.4958L58.6448 13.4534Z" fill="#B70037"/>
</g>
<defs>
<clipPath id="clip0">
<rect width="69.99" height="70.97" fill="white" transform="translate(5 5)"/>
</clipPath>
</defs>
</svg>
