<svg width="80" height="80" viewBox="0 0 80 80" fill="none" xmlns="http://www.w3.org/2000/svg">
<g clip-path="url(#clip0)">
<path d="M42.33 75.58H29.48L19.24 65.33L32.5 52.07L40.27 59.84L58.86 41.25L51.09 33.48L64.35 20.21L74.6 30.46V43.3L68.16 49.74L67.1 48.68L73.1 42.68V31.08L64.35 22.34L53.21 33.48L60.98 41.25L40.27 61.96L32.5 54.19L21.36 65.33L30.11 74.08H41.7L47.13 68.66L48.19 69.72L42.33 75.58Z" fill="#B70037"/>
<path d="M37.54 5H36.04V13.58H37.54V5Z" fill="#B70037"/>
<path d="M25.0535 7.24187L23.6727 7.82797L27.0252 15.7259L28.406 15.1398L25.0535 7.24187Z" fill="#B70037"/>
<path d="M14.8453 13.7833L13.7846 14.8439L19.8516 20.9109L20.9123 19.8502L14.8453 13.7833Z" fill="#B70037"/>
<path d="M7.59479 24.1859L7.03288 25.5766L14.9881 28.7908L15.55 27.4L7.59479 24.1859Z" fill="#B70037"/>
<path d="M48.0037 7.0386L44.791 14.9944L46.1818 15.5561L49.3946 7.60027L48.0037 7.0386Z" fill="#B70037"/>
<path d="M13.58 36.04H5V37.54H13.58V36.04Z" fill="#B70037"/>
<path d="M15.1365 45.1743L7.238 48.5254L7.82385 49.9063L15.7224 46.5552L15.1365 45.1743Z" fill="#B70037"/>
<path d="M20.1221 52.9681L14.162 59.1401L15.241 60.1821L21.2012 54.0101L20.1221 52.9681Z" fill="#B70037"/>
<path d="M58.3391 13.3977L52.3768 19.5676L53.4554 20.6099L59.4177 14.4401L58.3391 13.3977Z" fill="#B70037"/>
<path d="M67.63 75.62H58.36V68.62H51.36V59.35H58.36V52.35H67.63V59.35H74.63V68.61H67.63V75.62ZM59.86 74.12H66.13V67.12H73.13V60.85H66.13V53.85H59.86V60.85H52.86V67.11H59.86V74.12Z" fill="#B70037"/>
<path d="M25.68 41.79C26.17 41.35 26.68 40.88 27.29 40.38L29 38.85C29.6333 38.2967 30.1833 37.7967 30.65 37.35C31.0761 36.9506 31.4676 36.5157 31.82 36.05C32.1207 35.6621 32.3602 35.2305 32.53 34.77C32.6848 34.323 32.7625 33.853 32.76 33.38C32.7826 33.0368 32.7358 32.6925 32.6224 32.3678C32.509 32.0431 32.3313 31.7445 32.1 31.49C31.5873 31.0343 30.9148 30.8005 30.23 30.84C29.8145 30.835 29.4004 30.8889 29 31C28.6865 31.0882 28.3957 31.2427 28.1472 31.4533C27.8987 31.6638 27.6985 31.9253 27.56 32.22C27.3955 32.5608 27.2616 32.9155 27.16 33.28L25.56 33C25.6783 32.5285 25.8424 32.0696 26.05 31.63C26.2618 31.1872 26.5534 30.7872 26.91 30.45C27.3132 30.0883 27.7815 29.8066 28.29 29.62C28.9305 29.3881 29.6091 29.2796 30.29 29.3C30.9187 29.2908 31.5443 29.3889 32.14 29.59C32.6357 29.7691 33.0911 30.0444 33.48 30.4C33.8417 30.7515 34.1216 31.1783 34.3 31.65C34.4941 32.1607 34.5892 32.7037 34.58 33.25C34.5846 33.8057 34.5036 34.3589 34.34 34.89C34.1615 35.4258 33.909 35.934 33.59 36.4C33.2025 36.9472 32.7675 37.4592 32.29 37.93C31.77 38.45 31.15 39.01 30.43 39.63L29.26 40.63C28.87 40.96 28.48 41.29 28.1 41.63H34.72L34.47 43.2H25.67L25.68 41.79Z" fill="#B70037"/>
<path d="M36.77 38.56L43.22 29.66H44.88V38.42H46.74L46.51 39.83H44.88V43.2H43.24V39.83H36.77V38.56ZM43.24 38.42V31.91L38.55 38.44L43.24 38.42Z" fill="#B70037"/>
</g>
<defs>
<clipPath id="clip0">
<rect width="69.63" height="70.62" fill="white" transform="translate(5 5)"/>
</clipPath>
</defs>
</svg>
