<svg width="80" height="80" viewBox="0 0 80 80" fill="none" xmlns="http://www.w3.org/2000/svg">
<g clip-path="url(#clip0)">
<path d="M48.46 36.29L47.4 35.23L62.49 20.15H67.16L73.35 11.33L68.48 6.46L59.66 12.64V17.32L44.57 32.4L43.51 31.34L58.16 16.7V11.86L68.65 4.51L75.3 11.16L67.94 21.65H63.11L48.46 36.29Z" fill="#B70037"/>
<path d="M18.98 75.34H12.49L4.46001 67.31V60.83L21.72 43.58H28.14L29.46 42.25L30.52 43.31L28.77 45.08H22.34L5.96001 61.45V66.69L13.11 73.84H18.36L34.73 57.47V51.04L36.49 49.28L37.55 50.34L36.23 51.66V58.09L18.98 75.34Z" fill="#B70037"/>
<path d="M69.14 75.8H56.14L48.02 67.68V56.83L23 31.75H12.12L4 23.61V10.61L16.2 22.83L22.85 16.19L10.66 4H23.66L31.79 12.12V23L56.83 48.05H67.68L75.8 56.17V69.17L63.6 57L57 63.62L69.14 75.8ZM56.81 74.3H65.52L54.84 63.62L63.6 54.85L74.3 65.56V56.81L67.06 49.57H56.21L30.26 23.57V12.73L23 5.5H14.28L25 16.19L16.2 25L5.5 14.25V23L12.75 30.25H23.59L49.59 56.25V67.1L56.81 74.3Z" fill="#B70037"/>
</g>
<defs>
<clipPath id="clip0">
<rect width="71.8" height="71.8" fill="white" transform="translate(4 4)"/>
</clipPath>
</defs>
</svg>
