<svg width="48" height="48" viewBox="0 0 48 48" fill="none" xmlns="http://www.w3.org/2000/svg">
<path fill-rule="evenodd" clip-rule="evenodd" d="M14.5629 5.10156H33.1806L42.8996 14.6234V33.3798L33.1806 42.9016H14.5629L5.09961 33.3725V14.6306L14.5629 5.10156ZM15.3121 6.90156L6.89961 15.3725V32.6306L15.3121 41.1016H32.4458L41.0996 32.6234V15.3798L32.4458 6.90156H15.3121Z" fill="#B70037"/>
<path fill-rule="evenodd" clip-rule="evenodd" d="M19.2034 13.1016H26.0769C29.8452 13.1016 32.9 16.1564 32.9 19.9246C32.9 23.6929 29.8452 26.7477 26.0769 26.7477H21.0034V35.0016H19.2034V26.7477H17V24.9477H19.2034V13.1016ZM21.0034 24.9477H26.0769C28.8511 24.9477 31.1 22.6988 31.1 19.9246C31.1 17.1505 28.8511 14.9016 26.0769 14.9016H21.0034V24.9477Z" fill="#B70037"/>
<path fill-rule="evenodd" clip-rule="evenodd" d="M26 29.9016H17V28.1016H26V29.9016Z" fill="#B70037"/>
</svg>
