<svg width="80" height="80" viewBox="0 0 80 80" fill="none" xmlns="http://www.w3.org/2000/svg">
<path fill-rule="evenodd" clip-rule="evenodd" d="M32.75 22.75H43.75C49.549 22.75 54.25 27.451 54.25 33.25C54.25 39.049 49.549 43.75 43.75 43.75H34.25V47.75H43V49.25H34.25V58.5H32.75V49.25H28.5V47.75H32.75V43.75H28.5V42.25H32.75V22.75ZM34.25 42.25H43.75C48.7206 42.25 52.75 38.2206 52.75 33.25C52.75 28.2794 48.7206 24.25 43.75 24.25H34.25V42.25Z" fill="#B70037"/>
<path fill-rule="evenodd" clip-rule="evenodd" d="M55.301 8.50259H24.2715L8.49935 24.3843V55.6208L24.2715 71.5027H55.301L71.4993 55.633V24.3723L55.301 8.50259ZM24.8959 10.0026L9.99935 25.0026V55.0025L24.8959 70.0027H54.6887L69.9993 55.0026V25.0027L54.6887 10.0026H24.8959Z" fill="#B70037"/>
</svg>
