<svg width="80" height="80" viewBox="0 0 80 80" fill="none" xmlns="http://www.w3.org/2000/svg">
<path fill-rule="evenodd" clip-rule="evenodd" d="M30.5286 8.13398C33.5314 6.89018 36.7498 6.25 40 6.25C43.2502 6.25 46.4686 6.89018 49.4714 8.13398C52.4742 9.37779 55.2026 11.2009 57.5009 13.4991C59.7991 15.7974 61.6222 18.5258 62.866 21.5286C64.0779 24.4544 64.7168 27.5848 64.7487 30.75H69.8107L72.25 33.1893V53.8107L69.8107 56.25H64.2322C64.059 59.8681 62.6257 62.9334 60.1189 65.1269C57.4506 67.4617 53.6348 68.75 49 68.75H47.75V69.8107L45.3107 72.25H34.6893L32.25 69.8107V66.1893L34.6893 63.75H45.3107L47.75 66.1893V67.25H49C53.3652 67.25 56.7994 66.0383 59.1311 63.9981C61.2874 62.1113 62.56 59.4657 62.7303 56.25H57.1893L54.75 53.8107V33.1893L57.1893 30.75H63.2487C63.2167 27.7818 62.6167 24.8464 61.4802 22.1026C60.3118 19.2818 58.5992 16.7187 56.4402 14.5598C54.2813 12.4008 51.7182 10.6882 48.8974 9.5198C46.0766 8.35138 43.0532 7.75 40 7.75C36.9468 7.75 33.9234 8.35138 31.1026 9.5198C28.2818 10.6882 25.7187 12.4008 23.5598 14.5598C21.4008 16.7187 19.6882 19.2818 18.5198 22.1026C17.3833 24.8464 16.7833 27.7818 16.7513 30.75H22.8107L25.25 33.1893V53.8107L22.8107 56.25H10.1893L7.75 53.8107V33.1893L10.1893 30.75H15.2513C15.2832 27.5848 15.9221 24.4544 17.134 21.5286C18.3778 18.5258 20.2009 15.7974 22.4991 13.4991C24.7974 11.2009 27.5258 9.37779 30.5286 8.13398ZM10.8107 32.25L9.25 33.8107V53.1893L10.8107 54.75H22.1893L23.75 53.1893V33.8107L22.1893 32.25H10.8107ZM35.3107 65.25L33.75 66.8107V69.1893L35.3107 70.75H44.6893L46.25 69.1893V66.8107L44.6893 65.25H35.3107ZM56.25 33.8107L57.8107 32.25H69.1893L70.75 33.8107V53.1893L69.1893 54.75H57.8107L56.25 53.1893V33.8107Z" fill="#B70037"/>
</svg>
