<svg width="48" height="48" viewBox="0 0 48 48" fill="none" xmlns="http://www.w3.org/2000/svg">
<path fill-rule="evenodd" clip-rule="evenodd" d="M33.8949 18.1016H42.1044L43.8996 19.7771V32.226L42.1044 33.9016H33.8949L32.0996 32.226V19.7771L33.8949 18.1016ZM34.6044 19.9016L33.8996 20.5593V31.4438L34.6044 32.1016H41.3949L42.0996 31.4438V20.5593L41.3949 19.9016H34.6044Z" fill="#B70037"/>
<path fill-rule="evenodd" clip-rule="evenodd" d="M19.0996 39.6256L20.6268 38.0984L27.3724 38.0984L28.8996 39.6256L28.8996 42.3712L27.3724 43.8984L20.6268 43.8984L19.0996 42.3712L19.0996 39.6256ZM20.8996 41.6256L21.3724 42.0984L26.6268 42.0984L27.0996 41.6256L27.0996 40.3712L26.6268 39.8984L21.3724 39.8984L20.8996 40.3712L20.8996 41.6256Z" fill="#B70037"/>
<path fill-rule="evenodd" clip-rule="evenodd" d="M5.89486 18.1016H14.1044L15.8996 19.7771V32.226L14.1044 33.9016H5.89486L4.09961 32.226V19.7771L5.89486 18.1016ZM6.60436 19.9016L5.89961 20.5593V31.4438L6.60436 32.1016H13.3949L14.0996 31.4438V20.5593L13.3949 19.9016H6.60436Z" fill="#B70037"/>
<path fill-rule="evenodd" clip-rule="evenodd" d="M9.09961 19.0016C9.09961 10.7725 15.7706 4.10156 23.9996 4.10156C32.2287 4.10156 38.8996 10.7725 38.8996 19.0016H37.0996C37.0996 11.7666 31.2345 5.90156 23.9996 5.90156C16.7647 5.90156 10.8996 11.7666 10.8996 19.0016H9.09961Z" fill="#B70037"/>
<path fill-rule="evenodd" clip-rule="evenodd" d="M37.1 33V32.5H38.9V33C38.9 37.9153 34.9153 41.9 30 41.9H28V40.1H30C33.9212 40.1 37.1 36.9212 37.1 33Z" fill="#B70037"/>
</svg>
