<svg width="48" height="48" viewBox="0 0 48 48" fill="none" xmlns="http://www.w3.org/2000/svg">
<path fill-rule="evenodd" clip-rule="evenodd" d="M32.3976 22.9L33.9574 23.5121L36.9374 20.3H38.5278H42.8V5H21V13.668C20.054 13.364 19.0451 13.2 18.0002 13.2C12.7273 13.2 8.37299 17.3776 8.37299 22.628C8.37299 25.6731 9.83756 28.3573 12.0965 30.075C8.78581 32.2848 6.51259 36.2558 6.2042 40.8802L6.07617 42.7999H29.9242L29.7962 40.8802C29.4878 36.2558 27.2146 32.2848 23.9039 30.075C26.1629 28.3573 27.6274 25.6731 27.6274 22.628C27.6274 21.8231 27.5251 21.0433 27.3328 20.3H32.3976V22.9ZM26.6598 18.5H34.1976V20.6066L36.152 18.5H41V6.8H22.8V14.455C24.4602 15.3915 25.8131 16.7997 26.6598 18.5ZM21 15.5802V15.5815C21.421 15.752 21.8243 15.9572 22.2061 16.1937C24.3835 17.5483 25.8274 19.9238 25.8274 22.628C25.8274 26.8409 22.3231 30.2561 18.0002 30.2561C13.6774 30.2561 10.173 26.8409 10.173 22.628C10.173 18.4152 13.6774 15 18.0002 15C19.0629 15 20.0761 15.2063 21 15.5802ZM31.3 11.3364C31.3 11.0797 31.3879 10.9456 31.4739 10.8675C31.5751 10.7756 31.7313 10.7119 31.9104 10.7099C32.0893 10.7078 32.2366 10.7673 32.3289 10.8505C32.4057 10.9197 32.5 11.0531 32.5 11.3364C32.5 11.4741 32.4175 11.6713 32.1386 11.9502C32.0087 12.08 31.8639 12.2004 31.7128 12.3213L31.6512 12.3702L31.6512 12.3702C31.5312 12.4653 31.3731 12.5906 31.2636 12.7002L31 12.9638V14.3359H32.8V13.7566L32.8372 13.7268C32.9986 13.5977 33.2079 13.4264 33.4114 13.223C33.7992 12.8352 34.3 12.199 34.3 11.3364C34.3 10.5847 34.0193 9.95051 33.5336 9.51304C33.0634 9.08954 32.4607 8.90336 31.8896 8.90998C31.3187 8.91661 30.7249 9.11605 30.2636 9.53519C29.7871 9.96808 29.5 10.5929 29.5 11.3364H31.3ZM31 14.8097H32.8V16.6097H31V14.8097ZM18.8296 32.19H17.1731L17.614 33.4793H18.3886L18.8296 32.19ZM17.7594 35.4132H18.2433L19.0622 41H16.9405L17.7594 35.4132ZM20.1191 34.5355L21.0864 31.7074C21.5128 31.5698 21.9263 31.4045 22.3245 31.2136C24.9916 32.7345 27.0518 35.6218 27.7632 39.2C27.879 39.7826 27.9591 40.3836 28.0002 41H21.0667L20.1191 34.5355ZM13.6759 31.2136C11.0088 32.7345 8.94861 35.6218 8.23723 39.2C8.12139 39.7826 8.04132 40.3836 8.00021 41H14.936L15.8836 34.5355L14.9166 31.7082C14.4892 31.5705 14.0749 31.4049 13.6759 31.2136Z" fill="#B70037"/>
</svg>
