<svg width="80" height="80" viewBox="0 0 80 80" fill="none" xmlns="http://www.w3.org/2000/svg">
<path fill-rule="evenodd" clip-rule="evenodd" d="M35.75 9.25V24.4128C33.983 23.6641 32.0399 23.25 30 23.25C21.8538 23.25 15.25 29.8538 15.25 38C15.25 43.1386 17.8777 47.6636 21.8628 50.3043C15.542 53.7091 11.25 61.0213 11.25 70V70.75H48.75V70C48.75 61.0213 44.458 53.7091 38.1372 50.3043C42.1223 47.6636 44.75 43.1386 44.75 38C44.75 36.3382 44.4752 34.7405 43.9685 33.25H54.25V37.5406L56.7026 38.3581L61.8107 33.25H70.25V9.25H35.75ZM23.3206 51.2476L23.2626 51.1248C23.8346 51.4191 24.4284 51.677 25.0409 51.8956L27.2332 57.5955L25.8346 69.25H12.7606C13.0014 60.7369 17.3325 54.0794 23.3206 51.2476ZM27.3454 69.25L28.6654 58.25H31.3346L32.6546 69.25H27.3454ZM34.1654 69.25H47.2394C46.9986 60.7369 42.6675 54.0794 36.6794 51.2476L36.7374 51.1248C36.1654 51.4191 35.5716 51.677 34.9591 51.8956L32.7668 57.5955L34.1654 69.25ZM33.1533 52.4122C32.1373 52.6334 31.0823 52.75 30 52.75C28.9177 52.75 27.8627 52.6334 26.8467 52.4122L28.5151 56.75H31.4849L33.1533 52.4122ZM43.3643 31.75H55.75V36.4594L56.2974 36.6419L61.1893 31.75H68.75V10.75H37.25V25.1518C39.9124 26.6574 42.0603 28.9666 43.3643 31.75ZM16.75 38C16.75 30.6822 22.6822 24.75 30 24.75C37.3178 24.75 43.25 30.6822 43.25 38C43.25 45.3178 37.3178 51.25 30 51.25C22.6822 51.25 16.75 45.3178 16.75 38ZM52.25 26.5V25H53.75V26.5H52.25ZM51.25 19C51.25 18.4204 51.4399 17.9957 51.7178 17.7178C51.9957 17.4399 52.4204 17.25 53 17.25C53.5796 17.25 54.0043 17.4399 54.2822 17.7178C54.5601 17.9957 54.75 18.4204 54.75 19C54.75 19.5323 54.592 19.8631 54.2481 20.2561C54.0593 20.4718 53.822 20.6965 53.5147 20.9801L53.4017 21.0844C53.1266 21.3377 52.8101 21.6292 52.4697 21.9697L52.25 22.1893V24H53.75V22.8142C53.9843 22.5871 54.2055 22.3834 54.4166 22.1889L54.5321 22.0824C54.8342 21.8035 55.1282 21.5282 55.3769 21.2439C55.908 20.6369 56.25 19.9677 56.25 19C56.25 18.0796 55.9399 17.2543 55.3428 16.6572C54.7457 16.0601 53.9204 15.75 53 15.75C52.0796 15.75 51.2543 16.0601 50.6572 16.6572C50.0601 17.2543 49.75 18.0796 49.75 19H51.25Z" fill="#B70037"/>
</svg>
