<svg width="80" height="80" viewBox="0 0 80 80" fill="none" xmlns="http://www.w3.org/2000/svg">
<path fill-rule="evenodd" clip-rule="evenodd" d="M40 9.66501C23.2465 9.66501 9.66504 23.2465 9.66504 40C9.66504 56.7536 23.2465 70.335 40 70.335C56.7536 70.335 70.335 56.7536 70.335 40C70.335 23.2465 56.7536 9.66501 40 9.66501ZM8.16504 40C8.16504 22.418 22.4181 8.16501 40 8.16501C57.582 8.16501 71.835 22.418 71.835 40C71.835 57.582 57.582 71.835 40 71.835C22.4181 71.835 8.16504 57.582 8.16504 40Z" fill="#B70037"/>
<path fill-rule="evenodd" clip-rule="evenodd" d="M28.5781 18.3808C25.5585 23.8756 23.6675 31.5178 23.6675 40C23.6675 48.4823 25.5585 56.1244 28.5781 61.6192C31.6126 67.1412 35.683 70.335 39.9999 70.335C44.3168 70.335 48.3871 67.1412 51.4217 61.6192C54.4413 56.1244 56.3323 48.4823 56.3323 40C56.3323 31.5178 54.4413 23.8756 51.4217 18.3808C48.3871 12.8588 44.3168 9.66501 39.9999 9.66501C35.683 9.66501 31.6126 12.8588 28.5781 18.3808ZM27.2635 17.6584C30.4116 11.9298 34.8825 8.16501 39.9999 8.16501C45.1173 8.16501 49.5882 11.9298 52.7363 17.6584C55.8992 23.4141 57.8323 31.3145 57.8323 40C57.8323 48.6855 55.8992 56.5859 52.7363 62.3416C49.5882 68.0702 45.1173 71.835 39.9999 71.835C34.8825 71.835 30.4116 68.0702 27.2635 62.3416C24.1005 56.5859 22.1675 48.6855 22.1675 40C22.1675 31.3145 24.1005 23.4141 27.2635 17.6584Z" fill="#B70037"/>
<path fill-rule="evenodd" clip-rule="evenodd" d="M40.75 8.16501V71.835H39.25V8.16501H40.75Z" fill="#B70037"/>
<path fill-rule="evenodd" clip-rule="evenodd" d="M8.16504 39.25H71.835V40.75H8.16504V39.25Z" fill="#B70037"/>
<path fill-rule="evenodd" clip-rule="evenodd" d="M14.7803 20.9114H65.2113V22.4114H14.7803V20.9114Z" fill="#B70037"/>
<path fill-rule="evenodd" clip-rule="evenodd" d="M14.7002 57.5886H65.2911V59.0886H14.7002V57.5886Z" fill="#B70037"/>
</svg>
