<svg width="80" height="80" viewBox="0 0 80 80" fill="none" xmlns="http://www.w3.org/2000/svg">
<path fill-rule="evenodd" clip-rule="evenodd" d="M14.6381 7.25003H65.3248L72.75 14.6875V65.3184L65.3317 72.75H14.6597L7.25 65.348V14.6723L14.6381 7.25003ZM15.2614 8.75003L8.75 15.2916V64.7263L15.2806 71.25H64.7096L71.25 64.6979V15.3081L64.7028 8.75003H15.2614Z" fill="#B70037"/>
<path d="M15.0126 29.7943H17.0458L19.4824 36.4905H19.5981L22.0649 29.7943H24.0669V37.5197H22.8325V31.3396L22.8476 31.1857H22.7369L20.4371 37.5237H18.6504L16.3496 31.1857H16.2349L16.25 31.3396V37.5197H15.0126V29.7943Z" fill="#B70037"/>
<path fill-rule="evenodd" clip-rule="evenodd" d="M14.9126 29.6943H17.1158L19.5405 36.3576L21.9952 29.6943H24.1669V37.6197H22.7325V31.4911L20.5072 37.6237H18.5803L16.35 31.4799V37.6197H14.9126V29.6943ZM16.3496 31.1857L18.6504 37.5237H20.4371L22.7369 31.1857H22.8476L22.8325 31.3396V37.5197H24.0669V29.7943H22.0649L19.5981 36.4905H19.4824L17.0458 29.7943H15.0126V37.5197H16.25V31.3396L16.2349 31.1857H16.3496Z" fill="#B70037"/>
<path d="M34.4924 29.7943H35.7278V36.0016L35.7067 36.1615H35.8214L39.751 29.7943H41.4914V37.5227H40.257V31.3426L40.2731 31.1847H40.1634L36.256 37.5227H34.4924V29.7943Z" fill="#B70037"/>
<path fill-rule="evenodd" clip-rule="evenodd" d="M34.3924 29.6943H35.8278V35.9607L39.6952 29.6943H41.5914V37.6227H40.157V31.3857L36.3118 37.6227H34.3924V29.6943ZM40.257 31.3426V37.5227H41.4914V29.7943H39.751L35.8214 36.1615H35.7067L35.7278 36.0016V29.7943H34.4924V37.5227H36.256L40.1634 31.1847H40.2731L40.257 31.3426Z" fill="#B70037"/>
<path d="M49.45 41.7168H50.6844V47.9241L50.6633 48.083H50.778L54.7075 41.7168H56.449V49.4422H55.2136V43.2651L55.2297 43.1072H55.116L51.2086 49.4452H49.45V41.7168Z" fill="#B70037"/>
<path fill-rule="evenodd" clip-rule="evenodd" d="M49.35 41.6168H50.7844V47.8822L54.6518 41.6168H56.549V49.5422H55.1136V43.3016L51.2644 49.5452H49.35V41.6168ZM55.2136 43.2651V49.4422H56.449V41.7168H54.7075L50.778 48.083H50.6633L50.6844 47.9241V41.7168H49.45V49.4452H51.2086L55.116 43.1072H55.2297L55.2136 43.2651Z" fill="#B70037"/>
<path d="M65.1493 36.6745H43.2278V37.5226H65.1493V36.6745Z" fill="#B70037"/>
<path fill-rule="evenodd" clip-rule="evenodd" d="M43.1278 36.5745H65.2493V37.6226H43.1278V36.5745ZM65.1493 36.6745V37.5226H43.2278V36.6745H65.1493Z" fill="#B70037"/>
<path d="M39.8717 27.6897H36.1121V28.6404H39.8717V27.6897Z" fill="#B70037"/>
<path fill-rule="evenodd" clip-rule="evenodd" d="M36.0121 27.5897H39.9717V28.7404H36.0121V27.5897ZM39.8717 27.6897V28.6404H36.1121V27.6897H39.8717Z" fill="#B70037"/>
<path fill-rule="evenodd" clip-rule="evenodd" d="M27.3828 29.6344H30.8968L33.4175 32.1014V35.3489L30.8871 37.7177H27.3927L25.1575 35.3189V32.1311L27.3828 29.6344ZM28.0552 31.1344L26.6575 32.7025V34.7284L28.0452 36.2177H30.2946L31.9175 34.6984V32.7322L30.2849 31.1344H28.0552Z" fill="#B70037"/>
<path fill-rule="evenodd" clip-rule="evenodd" d="M41.6194 41.6041L46.6395 41.6041L48.222 42.6032V45.2109L47.5892 45.702L48.222 46.2746V48.691L46.6389 49.6874L41.6194 49.6874V41.6041ZM46.1657 44.908L46.722 44.4763V43.4302L46.2056 43.1041L43.1194 43.1041V44.908L46.1657 44.908ZM43.1194 46.408V48.1874L46.2062 48.1874L46.722 47.8627V46.9403L46.1336 46.408L43.1194 46.408Z" fill="#B70037"/>
<path fill-rule="evenodd" clip-rule="evenodd" d="M34.4904 41.6041H38.0044L40.5251 44.0711V47.3186L37.9948 49.6874H34.5003L33.7651 48.8984V52.4139H32.2651V41.6288H33.7651V42.4179L34.4904 41.6041ZM33.7651 44.6723V46.6981L35.1528 48.1874H37.4022L39.0251 46.6681V44.7019L37.3925 43.1041H35.1628L33.7651 44.6723Z" fill="#B70037"/>
<path fill-rule="evenodd" clip-rule="evenodd" d="M25.4177 41.6041H28.9457L31.3248 44.085V46.1983H24.6924V46.6981L26.0802 48.1874H28.3427L30.2068 46.5461L31.1981 47.6719L28.909 49.6874H25.4277L23.1924 47.2886V44.1008L25.4177 41.6041ZM24.6924 44.6983H29.8248V44.688L28.3059 43.1041H26.0901L24.6924 44.6723V44.6983Z" fill="#B70037"/>
<path fill-rule="evenodd" clip-rule="evenodd" d="M16.7518 41.6041H20.2658L22.5611 43.8505L21.5119 44.9225L19.6539 43.1041H17.4241L16.0265 44.6723V46.6981L17.4142 48.1874H19.6636L21.5239 46.4458L22.549 47.5409L20.2561 49.6874H16.7617L14.5265 47.2886V44.1008L16.7518 41.6041Z" fill="#B70037"/>
<path fill-rule="evenodd" clip-rule="evenodd" d="M59.7916 41.6041H63.3056L65.6009 43.8505L64.5517 44.9225L62.6938 43.1041H60.464L59.0663 44.6723V46.6981L60.4541 48.1874H62.7034L64.5637 46.4458L65.5889 47.5409L63.296 49.6874H59.8015L57.5663 47.2886V44.1008L59.7916 41.6041Z" fill="#B70037"/>
</svg>
