<svg width="80" height="80" viewBox="0 0 80 80" fill="none" xmlns="http://www.w3.org/2000/svg">
<path fill-rule="evenodd" clip-rule="evenodd" d="M5.54541 27.2785H54.574L59.1966 32.0882V62.9198H14.9005L8.16338 69.475H5.54541V27.2785ZM7.04541 28.7785V67.975H7.55405L14.2912 61.4198H57.6966V32.6921L53.9352 28.7785H7.04541Z" fill="#B70037"/>
<path fill-rule="evenodd" clip-rule="evenodd" d="M74.4546 10.525H37.0191L33.4099 14.2803V28.076H34.9099V14.8843L37.658 12.025H72.9546V41.6257H72.8238L67.7153 36.6551H58.4877V38.1551H67.106L72.2145 43.1257H74.4546V10.525Z" fill="#B70037"/>
<path fill-rule="evenodd" clip-rule="evenodd" d="M29.692 49.2517L39.8898 39.5175L40.9255 40.6025L29.692 51.3254L23.8164 45.7168L24.8521 44.6317L29.692 49.2517Z" fill="#B70037"/>
</svg>
