<svg width="80" height="80" viewBox="0 0 80 80" fill="none" xmlns="http://www.w3.org/2000/svg">
<path fill-rule="evenodd" clip-rule="evenodd" d="M25.8094 8.02072H54.1901L71.9791 25.8097V54.1903L54.1901 71.9793H25.8094L8.02051 54.1903V25.8097L25.8094 8.02072ZM26.4308 9.52072L9.52051 26.431V53.569L26.4308 70.4793H53.5688L70.4791 53.569V26.431L53.5688 9.52072H26.4308Z" fill="#B70037"/>
<path fill-rule="evenodd" clip-rule="evenodd" d="M40.75 8.77628V14.3059H39.25V8.77628H40.75Z" fill="#B70037"/>
<path fill-rule="evenodd" clip-rule="evenodd" d="M40.75 18.5252V39.8509H39.25V18.5252H40.75Z" fill="#B70037"/>
<path fill-rule="evenodd" clip-rule="evenodd" d="M51.0999 48.4926L39.3285 39.8549L40.2159 38.6455L51.9873 47.2833L51.0999 48.4926Z" fill="#B70037"/>
<path fill-rule="evenodd" clip-rule="evenodd" d="M40.75 65.7173V71.2468H39.25V65.7173H40.75Z" fill="#B70037"/>
<path fill-rule="evenodd" clip-rule="evenodd" d="M65.9531 39.25H71.4827V40.75H65.9531V39.25Z" fill="#B70037"/>
<path fill-rule="evenodd" clip-rule="evenodd" d="M8.64697 39.25H14.1766V40.75H8.64697V39.25Z" fill="#B70037"/>
</svg>
