<svg width="80" height="80" viewBox="0 0 80 80" fill="none" xmlns="http://www.w3.org/2000/svg">
<path fill-rule="evenodd" clip-rule="evenodd" d="M17.7591 7.75H48.8108L51.3199 10.2591V36.3051H49.8199V10.8805L48.1894 9.25H18.3805L16.75 10.8805V62.1767L18.3805 63.8072H25.688V65.3072H17.7591L15.25 62.798V10.2591L17.7591 7.75Z" fill="#B70037"/>
<path fill-rule="evenodd" clip-rule="evenodd" d="M16.3013 15.0472H50.268V16.5472H16.3013V15.0472Z" fill="#B70037"/>
<path fill-rule="evenodd" clip-rule="evenodd" d="M16.3013 56.5031H25.6882V58.0031H16.3013V56.5031Z" fill="#B70037"/>
<path fill-rule="evenodd" clip-rule="evenodd" d="M28.0044 11.3853H38.5664V12.8853H28.0044V11.3853Z" fill="#B70037"/>
<path fill-rule="evenodd" clip-rule="evenodd" d="M35.5532 33.1823C35.5532 31.2958 37.2382 29.8849 39.1372 29.8849C40.1056 29.8849 40.9849 30.2377 41.6392 30.8159L41.6472 30.823C42.2942 31.4115 42.7212 32.2425 42.7212 33.1757V47.7377H41.2212V33.1757C41.2212 32.7174 41.0135 32.2761 40.6418 31.9363C40.2605 31.6011 39.7355 31.3849 39.1372 31.3849C37.9137 31.3849 37.0532 32.2693 37.0532 33.1823V47.7377H35.5532V33.1823Z" fill="#B70037"/>
<path fill-rule="evenodd" clip-rule="evenodd" d="M41.2227 40.5193C41.2227 38.6304 42.9177 37.2218 44.8141 37.2218C45.7824 37.2218 46.6617 37.5747 47.316 38.1528L47.32 38.1564C47.9723 38.7412 48.3981 39.5746 48.3981 40.5126V51.7045H46.8981V40.5126C46.8981 40.0451 46.6882 39.6055 46.3207 39.2751C45.9392 38.9388 45.4134 38.7218 44.8141 38.7218C43.5879 38.7218 42.7227 39.6087 42.7227 40.5193V47.7374H41.2227V40.5193Z" fill="#B70037"/>
<path fill-rule="evenodd" clip-rule="evenodd" d="M46.8984 41.7801C46.8984 39.8912 48.5935 38.4827 50.4898 38.4827C51.4627 38.4827 52.341 38.8452 52.9918 39.4203L52.9998 39.4274C53.6468 40.0159 54.0739 40.8469 54.0739 41.7801V52.972H52.5739V41.7801C52.5739 41.3218 52.3661 40.8805 51.9944 40.5407C51.6096 40.2024 51.0836 39.9827 50.4898 39.9827C49.2636 39.9827 48.3984 40.8695 48.3984 41.7801V51.7049H46.8984V41.7801Z" fill="#B70037"/>
<path fill-rule="evenodd" clip-rule="evenodd" d="M52.5674 43.3852C52.5674 41.4884 54.2637 40.0877 56.1588 40.0877C57.1235 40.0877 58.0143 40.4383 58.6667 41.0307C59.3223 41.6193 59.7502 42.4444 59.7502 43.3852V57.9471H58.2502V43.3852C58.2502 42.9205 58.0426 42.4858 57.6634 42.1458L57.6594 42.1422C57.2908 41.8069 56.7618 41.5877 56.1588 41.5877C54.9313 41.5877 54.0674 42.4691 54.0674 43.3852V52.9716H52.5674V43.3852Z" fill="#B70037"/>
<path fill-rule="evenodd" clip-rule="evenodd" d="M37.047 46.2374V55.5983L35.6847 56.0314L33.2357 52.5688C32.6388 51.7264 31.3113 51.4306 30.3031 51.9985C29.3399 52.5476 29.1131 53.6344 29.6661 54.4235C29.6663 54.4238 29.6665 54.4242 29.6668 54.4245L35.5029 62.6808C35.503 62.6809 35.5028 62.6806 35.5029 62.6808C36.2895 63.7901 36.986 64.9841 37.4597 66.2723L37.4601 66.2735C38.5088 69.1404 41.575 70.75 45.4576 70.75H47.8846C53.6841 70.75 58.2487 66.5525 58.2487 61.5358V56.4471H59.7487V61.5358C59.7487 67.5314 54.3536 72.25 47.8846 72.25H45.4576C41.2306 72.25 37.4006 70.4764 36.0516 66.7895C35.6374 65.6632 35.0167 64.5883 34.2793 63.5485L28.4404 55.2882L28.439 55.2862C27.3356 53.7141 27.8929 51.6444 29.5624 50.6941L29.5649 50.6927C31.1906 49.7756 33.3845 50.1833 34.4598 51.702L35.547 53.2391V46.2374H37.047Z" fill="#B70037"/>
</svg>
