<svg width="80" height="80" viewBox="0 0 80 80" fill="none" xmlns="http://www.w3.org/2000/svg">
<g clip-path="url(#clip0)">
<path d="M69.28 64.34C68.595 64.3432 67.9161 64.2105 67.2827 63.9496C66.6493 63.6887 66.074 63.3048 65.59 62.82L38.38 35.61L35.69 38.29V44L29.2 50.5L15.27 36.57L21.76 30.08H28.29L40.34 18V11.49L46.84 5L60.77 18.93L54.27 25.42H48.56L45.76 28.22L73 55.44C73.731 56.1687 74.2292 57.0981 74.4312 58.1103C74.6332 59.1225 74.53 60.1719 74.1347 61.1254C73.7394 62.0789 73.0698 62.8935 72.2108 63.4658C71.3518 64.0381 70.3422 64.3424 69.31 64.34H69.28ZM38.38 33.49L66.65 61.76C67.3518 62.4366 68.2911 62.8108 69.2659 62.8019C70.2408 62.793 71.1731 62.4018 71.8625 61.7125C72.5518 61.0231 72.943 60.0908 72.9519 59.116C72.9608 58.1411 72.5866 57.2018 71.91 56.5L43.64 28.22L47.94 23.92H53.65L58.65 18.92L46.84 7.12L41.84 12.12V18.65L28.92 31.58H22.38L17.38 36.58L29.2 48.38L34.2 43.38V37.67L38.38 33.49Z" fill="#B70037"/>
<path d="M44.25 74.5H5V63.34L13.2 55.14H36.05L44.25 63.34V74.5ZM6.5 73H42.75V64L35.43 56.68H13.82L6.5 64V73Z" fill="#B70037"/>
</g>
<defs>
<clipPath id="clip0">
<rect width="69.5" height="69.5" fill="white" transform="translate(5 5)"/>
</clipPath>
</defs>
</svg>
