<svg width="80" height="80" viewBox="0 0 80 80" fill="none" xmlns="http://www.w3.org/2000/svg">
<g clip-path="url(#clip0)">
<path d="M23.71 74.41H10.27L6 70.14V36.23L10.27 32H19.44L23.71 36.27V74.41ZM10.89 72.91H22.21V36.85L18.82 33.46H10.89L7.5 36.85V69.52L10.89 72.91Z" fill="#B70037"/>
<path d="M74.5 74.41H22.96V72.91H73V65.38H62.14V63.88H74.5V74.41Z" fill="#B70037"/>
<path d="M74.44 65.38H61.25V63.88H72.94V54.81H61.25V53.31H74.44V65.38Z" fill="#B70037"/>
<path d="M74.44 54.81H61.25V53.31H72.94V44.23H61.25V42.73H74.44V54.81Z" fill="#B70037"/>
<path d="M74.44 44.23H61.25V42.73H72.94V33.65H61.25V32.15H74.44V44.23Z" fill="#B70037"/>
<path d="M23.84 36.7L22.78 35.64L32.87 25.55V13C33.0646 11.2918 33.8811 9.71489 35.1638 8.57004C36.4465 7.42519 38.1057 6.79245 39.825 6.79245C41.5443 6.79245 43.2035 7.42519 44.4862 8.57004C45.7689 9.71489 46.5854 11.2918 46.78 13V32.2H61.25V33.7H45.25V13C45.1331 11.6378 44.5093 10.3689 43.502 9.44441C42.4948 8.51988 41.1773 8.00691 39.81 8.00691C38.4427 8.00691 37.1252 8.51988 36.118 9.44441C35.1107 10.3689 34.4869 11.6378 34.37 13V26.17L23.84 36.7Z" fill="#B70037"/>
</g>
<defs>
<clipPath id="clip0">
<rect width="68.5" height="68.41" fill="white" transform="translate(6 6)"/>
</clipPath>
</defs>
</svg>
