<svg width="80" height="80" viewBox="0 0 80 80" fill="none" xmlns="http://www.w3.org/2000/svg">
<g clip-path="url(#clip0)">
<path d="M37.78 75.28H20.13V52.12H14V26.63L20.77 19.86H37.41L44.18 26.63V35.3H42.68V27.25L36.79 21.36H21.39L15.5 27.25V50.62H21.63V73.78H36.28V67.18H37.78V75.28Z" fill="#B70037"/>
<path d="M28.81 16.87C27.5363 16.87 26.2912 16.4923 25.2321 15.7847C24.1731 15.077 23.3476 14.0712 22.8602 12.8945C22.3728 11.7177 22.2453 10.4229 22.4937 9.17362C22.7422 7.92438 23.3556 6.77688 24.2562 5.87623C25.1569 4.97558 26.3044 4.36223 27.5536 4.11374C28.8029 3.86525 30.0977 3.99279 31.2745 4.48022C32.4512 4.96764 33.457 5.79308 34.1647 6.85213C34.8723 7.91118 35.25 9.15629 35.25 10.43C35.2474 12.1372 34.568 13.7737 33.3608 14.9808C32.1537 16.188 30.5172 16.8674 28.81 16.87ZM28.81 5.5C27.8325 5.5 26.877 5.78998 26.0644 6.33324C25.2519 6.8765 24.6187 7.64861 24.2451 8.55186C23.8715 9.45511 23.7742 10.4489 23.9657 11.4074C24.1571 12.366 24.6286 13.2462 25.3204 13.9366C26.0123 14.6271 26.8935 15.0968 27.8524 15.2863C28.8113 15.4758 29.8049 15.3765 30.7074 15.0011C31.6099 14.6257 32.3807 13.9909 32.9223 13.1772C33.4639 12.3635 33.752 11.4075 33.75 10.43C33.75 9.78174 33.6222 9.13985 33.3738 8.54106C33.1254 7.94227 32.7614 7.39835 32.3025 6.94042C31.8436 6.4825 31.299 6.11957 30.6997 5.8724C30.1004 5.62523 29.4583 5.49869 28.81 5.5V5.5Z" fill="#B70037"/>
<path d="M29.84 48.62H28.34V74.08H29.84V48.62Z" fill="#B70037"/>
<path d="M21.63 40.11H20.13V51.26H21.63V40.11Z" fill="#B70037"/>
<path d="M60.58 40.27L61.73 41.42L64.19 43.87V62.54L56.19 70.54L53.42 73.3H49.82L46.82 70.3L39.04 62.52V44.52C39.77 43.73 40.39 42.96 41.04 42.22C41.69 41.48 42.11 40.87 42.72 40.22H60.58V40.27ZM61.4 38.22H41.84C39.98 40.08 38.93 41.84 37.07 43.71V63.36L49 75.29H54.25C58.9 70.63 61.52 68 66.18 63.36V43.05L61.4 38.28V38.22Z" fill="#B70037"/>
<path d="M51.29 58.89L44.98 52.59L46.04 51.52L51.29 56.77L59.31 48.75L60.37 49.81L51.29 58.89Z" fill="#B70037"/>
</g>
<defs>
<clipPath id="clip0">
<rect width="52.18" height="71.29" fill="white" transform="translate(14 4)"/>
</clipPath>
</defs>
</svg>
