<svg width="80" height="80" viewBox="0 0 80 80" fill="none" xmlns="http://www.w3.org/2000/svg">
<g clip-path="url(#clip0)">
<path d="M54.19 74.91H40.65V73.41H54.19V74.91ZM35.58 35.82H34.08V26.23L40 20.29H54.56L60.5 26.23V35.57H59V26.85L53.94 21.79H40.64L35.58 26.85V35.82Z" fill="#B70037"/>
<path d="M33 50C31.8845 50 30.7941 49.6692 29.8666 49.0495C28.9391 48.4298 28.2162 47.5489 27.7893 46.5183C27.3624 45.4878 27.2508 44.3537 27.4684 43.2597C27.686 42.1656 28.2232 41.1607 29.0119 40.3719C29.8007 39.5832 30.8056 39.046 31.8997 38.8284C32.9937 38.6108 34.1278 38.7224 35.1583 39.1493C36.1889 39.5762 37.0698 40.2991 37.6895 41.2266C38.3092 42.1541 38.64 43.2445 38.64 44.36C38.6374 45.855 38.0423 47.288 36.9852 48.3452C35.928 49.4023 34.495 49.9974 33 50V50ZM33 40.22C32.1812 40.22 31.3808 40.4628 30.6999 40.9177C30.0191 41.3726 29.4885 42.0192 29.1751 42.7757C28.8618 43.5322 28.7798 44.3646 28.9396 45.1677C29.0993 45.9708 29.4936 46.7084 30.0726 47.2874C30.6516 47.8664 31.3892 48.2607 32.1923 48.4205C32.9954 48.5802 33.8278 48.4982 34.5843 48.1849C35.3408 47.8715 35.9874 47.3409 36.4423 46.6601C36.8972 45.9792 37.14 45.1788 37.14 44.36C37.1466 43.8121 37.0444 43.2684 36.8393 42.7603C36.6342 42.2523 36.3303 41.79 35.9452 41.4002C35.5602 41.0105 35.1015 40.701 34.5959 40.4899C34.0904 40.2787 33.5479 40.17 33 40.17V40.22Z" fill="#B70037"/>
<path d="M24.3 74.94H16.07V60.16H5V54.13L11.95 47.22V28.04L17.89 22.09H27.27L30.85 25.67L29.79 26.73L26.65 23.59H18.51L13.45 28.66V47.84L6.5 54.75V58.66H17.57V73.44H24.3V74.94Z" fill="#B70037"/>
<path d="M37.64 74.94H28.28V68.25H24.34V56.25L28.72 51.88H37.2L41.57 56.25V68.25H37.64V74.94ZM29.78 73.44H36.14V66.75H40.07V56.9L36.58 53.41H29.34L25.84 56.9V66.75H29.78V73.44Z" fill="#B70037"/>
<path d="M22.45 18.89C21.1901 18.89 19.9586 18.5164 18.911 17.8165C17.8635 17.1165 17.047 16.1217 16.5649 14.9577C16.0828 13.7937 15.9566 12.5129 16.2024 11.2773C16.4482 10.0416 17.0549 8.90659 17.9457 8.01573C18.8366 7.12487 19.9716 6.51818 21.2073 6.27239C22.4429 6.02661 23.7237 6.15275 24.8877 6.63488C26.0517 7.11701 27.0465 7.93347 27.7465 8.98101C28.4464 10.0286 28.82 11.2601 28.82 12.52C28.8174 14.2086 28.1454 15.8273 26.9514 17.0213C25.7573 18.2154 24.1386 18.8874 22.45 18.89V18.89ZM22.45 7.65C21.4868 7.65 20.5452 7.93562 19.7444 8.47074C18.9435 9.00586 18.3193 9.76645 17.9507 10.6563C17.5821 11.5462 17.4857 12.5254 17.6736 13.4701C17.8615 14.4148 18.3253 15.2825 19.0064 15.9636C19.6875 16.6447 20.5552 17.1085 21.4999 17.2964C22.4446 17.4843 23.4238 17.3879 24.3137 17.0193C25.2036 16.6507 25.9641 16.0265 26.4993 15.2256C27.0344 14.4248 27.32 13.4832 27.32 12.52C27.32 11.8805 27.194 11.2472 26.9493 10.6563C26.7046 10.0655 26.3458 9.52861 25.8936 9.07639C25.4414 8.62417 24.9045 8.26544 24.3137 8.0207C23.7228 7.77596 23.0895 7.65 22.45 7.65V7.65Z" fill="#B70037"/>
<path d="M47.29 17.74C46.0301 17.74 44.7986 17.3664 43.751 16.6665C42.7035 15.9665 41.887 14.9717 41.4049 13.8077C40.9228 12.6437 40.7966 11.3629 41.0424 10.1273C41.2882 8.89162 41.8949 7.75659 42.7857 6.86573C43.6766 5.97487 44.8116 5.36819 46.0473 5.1224C47.2829 4.87661 48.5637 5.00276 49.7277 5.48489C50.8917 5.96702 51.8865 6.78348 52.5865 7.83102C53.2864 8.87856 53.66 10.1101 53.66 11.37C53.6574 13.0586 52.9854 14.6773 51.7913 15.8714C50.5973 17.0654 48.9786 17.7374 47.29 17.74ZM47.29 6.5C46.3268 6.5 45.3852 6.78562 44.5844 7.32075C43.7835 7.85587 43.1593 8.61646 42.7907 9.50633C42.4221 10.3962 42.3257 11.3754 42.5136 12.3201C42.7015 13.2648 43.1653 14.1325 43.8464 14.8136C44.5275 15.4947 45.3952 15.9585 46.3399 16.1464C47.2846 16.3343 48.2638 16.2379 49.1537 15.8693C50.0435 15.5007 50.8041 14.8765 51.3393 14.0756C51.8744 13.2748 52.16 12.3332 52.16 11.37C52.1574 10.0792 51.6434 8.84204 50.7307 7.92931C49.818 7.01658 48.5808 6.50265 47.29 6.5V6.5Z" fill="#B70037"/>
<path d="M70 40.47L72.43 42.9L73.59 44V62.5L64.73 71.35L62.94 73.14H59.38L56.68 70.44L48.74 62.5V44.73C49.47 43.95 50.07 43.19 50.66 42.45C51.25 41.71 51.73 41.12 52.33 40.45H70V40.47ZM70.81 38.45H51.49C49.65 40.29 48.61 42.04 46.77 43.88V63.31L58.57 75.11H63.75L75.55 63.31V43.23L70.83 38.51L70.81 38.45Z" fill="#B70037"/>
<path d="M60.83 58.91L54.59 52.66L55.65 51.6L60.83 56.78L68.76 48.85L69.82 49.92L60.83 58.91Z" fill="#B70037"/>
</g>
<defs>
<clipPath id="clip0">
<rect width="70.55" height="70.11" fill="white" transform="translate(5 5)"/>
</clipPath>
</defs>
</svg>
