<svg width="80" height="80" viewBox="0 0 80 80" fill="none" xmlns="http://www.w3.org/2000/svg">
<g clip-path="url(#clip0)">
<path d="M42.27 61.81H32.27L6 36.97V13.63L13.54 6H29.11L37.42 14.23L45.73 6H61.3L68.84 13.63V36.19H67.34V14.24L60.68 7.5H46.34L37.42 16.34L28.5 7.5H14.16L7.5 14.24V36.32L32.87 60.31H42.27V61.81Z" fill="#B70037"/>
<path d="M69.58 41L70.69 42.11L73.06 44.48V62.48L66.28 69.27L62.66 72.89H59.18L58.18 71.89L48.77 62.5V45.14C49.49 44.37 50.08 43.63 50.66 42.91C51.24 42.19 51.66 41.61 52.28 40.98H69.58V41ZM70.37 39.05H51.46C49.66 40.86 48.65 42.56 46.85 44.36V63.3L58.38 74.83H63.45L75 63.3V43.67L70.38 39.05H70.37Z" fill="#B70037"/>
<path d="M60.59 59.02L54.48 52.9L55.54 51.84L60.59 56.9L68.33 49.16L69.39 50.22L60.59 59.02Z" fill="#B70037"/>
</g>
<defs>
<clipPath id="clip0">
<rect width="68.99" height="68.83" fill="white" transform="translate(6 6)"/>
</clipPath>
</defs>
</svg>
