<svg width="80" height="80" viewBox="0 0 80 80" fill="none" xmlns="http://www.w3.org/2000/svg">
<g clip-path="url(#clip0)">
<path d="M29.84 32.65H28.34V52.01H29.84V32.65Z" fill="#B70037"/>
<path d="M29 43.24C26.333 43.246 23.7238 42.4631 21.5007 40.9898C19.2776 39.5165 17.5399 37.4186 16.5062 34.96C15.4725 32.5015 15.1891 29.7921 15.6916 27.1729C16.194 24.5536 17.4599 22.1415 19.33 20.24C18.8142 18.9547 18.5606 17.5793 18.5841 16.1946C18.6075 14.8099 18.9076 13.4438 19.4666 12.1767C20.0256 10.9097 20.8323 9.76711 21.8392 8.81628C22.8461 7.86546 24.033 7.12553 25.33 6.64C27.2173 5.93433 29.2689 5.79209 31.2355 6.23056C33.2021 6.66904 34.999 7.66934 36.4078 9.10988C37.8166 10.5504 38.7765 12.3692 39.171 14.3451C39.5655 16.321 39.3776 18.3689 38.63 20.24L38.79 20.4C40.6134 22.3162 41.8346 24.7251 42.3025 27.3285C42.7704 29.9319 42.4644 32.6153 41.4223 35.0464C40.3802 37.4776 38.6479 39.5497 36.4398 41.0061C34.2318 42.4625 31.6451 43.2392 29 43.24V43.24ZM29 7.5C27.5081 7.50275 26.0406 7.87967 24.732 8.59627C23.4235 9.31287 22.3155 10.3463 21.5096 11.6018C20.7038 12.8574 20.2257 14.2951 20.1192 15.7832C20.0127 17.2714 20.2811 18.7625 20.9 20.12L21.12 20.61L20.73 20.98C19.0111 22.6134 17.8146 24.7194 17.2915 27.0322C16.7685 29.345 16.9424 31.7609 17.7913 33.975C18.6402 36.189 20.126 38.102 22.0611 39.4723C23.9963 40.8426 26.2941 41.6089 28.6644 41.6745C31.0347 41.74 33.3712 41.1018 35.3792 39.8405C37.3871 38.5792 38.9763 36.7513 39.9462 34.5875C40.9161 32.4237 41.2232 30.0211 40.8288 27.6829C40.4344 25.3448 39.3561 23.1758 37.73 21.45C37.58 21.29 37.42 21.13 37.26 20.98L36.87 20.61L37.09 20.12C37.7113 18.7634 37.9819 17.2726 37.8771 15.7842C37.7723 14.2958 37.2954 12.8576 36.4902 11.6015C35.685 10.3453 34.5772 9.31154 33.2685 8.59492C31.9598 7.87831 30.4921 7.50182 29 7.5V7.5Z" fill="#B70037"/>
<path d="M44.3 51.12H6V52.62H44.3V51.12Z" fill="#B70037"/>
<path d="M44.3 58.79H6V60.29H44.3V58.79Z" fill="#B70037"/>
<path d="M44.37 66.46H6V67.96H44.37V66.46Z" fill="#B70037"/>
<path d="M69.61 41.08L73.08 44.56V62.56L69.47 66.17L62.71 72.93H59.24L58.13 71.83L48.86 62.56V45.23C49.57 44.46 50.16 43.73 50.74 43.01C51.32 42.29 51.74 41.71 52.36 41.08H69.61ZM70.4 39.16H51.54C49.75 40.96 48.74 42.66 46.94 44.46V63.34L58.44 74.84H63.5L75 63.34V43.76L70.4 39.16Z" fill="#B70037"/>
<path d="M60.65 59.07L54.55 52.97L55.61 51.91L60.65 56.95L68.36 49.24L69.42 50.3L60.65 59.07Z" fill="#B70037"/>
</g>
<defs>
<clipPath id="clip0">
<rect width="69" height="68.84" fill="white" transform="translate(6 6)"/>
</clipPath>
</defs>
</svg>
