<svg width="80" height="80" viewBox="0 0 80 80" fill="none" xmlns="http://www.w3.org/2000/svg">
<g clip-path="url(#clip0)">
<path d="M70 40.82L73.55 44.38V62.77L70.61 65.71L63 73.38H59.43L52.52 66.47L48.82 62.77V45.06C49.55 44.28 50.15 43.53 50.74 42.79C51.33 42.05 51.81 41.47 52.4 40.79H70V40.82ZM70.81 38.79H51.57C49.73 40.63 48.7 42.37 46.86 44.2V63.58L58.62 75.34H63.79L75.55 63.58V43.58L70.85 38.88L70.81 38.79Z" fill="#B70037"/>
<path d="M60.88 59.19L54.65 52.97L55.71 51.91L60.88 57.07L68.78 49.17L69.84 50.23L60.88 59.19Z" fill="#B70037"/>
<path d="M52.23 73.66H5V75.16H52.23V73.66Z" fill="#B70037"/>
<path d="M13.59 21.12H12.09V74.4H13.59V21.12Z" fill="#B70037"/>
<path d="M5.33 21.88L22.15 5.06L58.48 5L75.29 21.81L5.33 21.88ZM22.77 6.56L9 20.37H71.72L57.86 6.5L22.77 6.56Z" fill="#B70037"/>
<path d="M37.08 44.89H27.72V27.66H37.08V44.89ZM29.22 43.39H35.58V29.16H29.22V43.39Z" fill="#B70037"/>
<path d="M37.08 68.34H27.72V51.11H37.08V68.34ZM29.22 66.84H35.58V52.61H29.22V66.84Z" fill="#B70037"/>
<path d="M68.41 21.07H66.91V36.25H68.41V21.07Z" fill="#B70037"/>
</g>
<defs>
<clipPath id="clip0">
<rect width="70.55" height="70.34" fill="white" transform="translate(5 5)"/>
</clipPath>
</defs>
</svg>
