<svg width="80" height="80" viewBox="0 0 80 80" fill="none" xmlns="http://www.w3.org/2000/svg">
<g clip-path="url(#clip0)">
<path d="M70 40.28L71.15 41.43L73.62 43.9V62.63L65.55 70.7L62.8 73.44H59.19L56.19 70.44L48.37 62.62V44.62C49.11 43.82 49.73 43.06 50.37 42.31C51.01 41.56 51.45 40.96 52.06 40.31H70V40.28ZM70.83 38.31H51.18C49.31 40.18 48.26 41.95 46.39 43.82V63.46L58.39 75.46H63.66L75.66 63.46V43.07L70.87 38.28L70.83 38.31Z" fill="#B70037"/>
<path d="M60.66 58.97L54.33 52.64L55.39 51.58L60.66 56.85L68.72 48.79L69.78 49.85L60.66 58.97Z" fill="#B70037"/>
<path d="M35.41 75.23H4V46.13L12.53 37.71H26.87L35.41 46.13V75.23ZM5.5 73.73H33.91V46.73L26.26 39.18H13.15L5.5 46.76V73.73Z" fill="#B70037"/>
<path d="M12.42 46.25H10.92V69.35H12.42V46.25Z" fill="#B70037"/>
<path d="M20.47 44.23H18.97V64.92H20.47V44.23Z" fill="#B70037"/>
<path d="M28.59 46.25H27.09V69.35H28.59V46.25Z" fill="#B70037"/>
<path d="M49.99 35.64H48.49V13.1L40.9 5.5H26.62L18.79 13.33V35.64H17.29V12.71L26 4H41.52L49.99 12.47V35.64Z" fill="#B70037"/>
<path d="M51.63 73.73H37.88V75.23H51.63V73.73Z" fill="#B70037"/>
<path d="M26.57 11.67H25.07V16.49H26.57V11.67Z" fill="#B70037"/>
<path d="M34.49 11.67H32.99V16.49H34.49V11.67Z" fill="#B70037"/>
<path d="M42.76 11.67H41.26V16.49H42.76V11.67Z" fill="#B70037"/>
<path d="M26.57 19.85H25.07V24.67H26.57V19.85Z" fill="#B70037"/>
<path d="M34.49 19.85H32.99V24.67H34.49V19.85Z" fill="#B70037"/>
<path d="M42.76 19.85H41.26V24.67H42.76V19.85Z" fill="#B70037"/>
<path d="M26.57 27.64H25.07V32.46H26.57V27.64Z" fill="#B70037"/>
<path d="M34.49 27.64H32.99V32.46H34.49V27.64Z" fill="#B70037"/>
<path d="M34.49 35.45H32.99V40.27H34.49V35.45Z" fill="#B70037"/>
<path d="M42.76 27.64H41.26V32.46H42.76V27.64Z" fill="#B70037"/>
<path d="M42.76 35.45H41.26V40.27H42.76V35.45Z" fill="#B70037"/>
<path d="M42.76 43.64H41.26V48.46H42.76V43.64Z" fill="#B70037"/>
<path d="M42.76 51.42H41.26V56.24H42.76V51.42Z" fill="#B70037"/>
<path d="M42.76 59.5H41.26V64.32H42.76V59.5Z" fill="#B70037"/>
<path d="M24.06 75.23H15.64V67.47H24.06V75.23ZM17.14 73.73H22.56V69H17.14V73.73Z" fill="#B70037"/>
<path d="M68.37 35.6H66.87V27.51L59.72 20.35H51.59V18.85H60.34L68.37 26.89V35.6Z" fill="#B70037"/>
<path d="M59.65 26.9H54.08V28.4H59.65V26.9Z" fill="#B70037"/>
<path d="M59.65 31.71H54.08V33.21H59.65V31.71Z" fill="#B70037"/>
</g>
<defs>
<clipPath id="clip0">
<rect width="71.61" height="71.44" fill="white" transform="translate(4 4)"/>
</clipPath>
</defs>
</svg>
