<svg width="80" height="80" viewBox="0 0 80 80" fill="none" xmlns="http://www.w3.org/2000/svg">
<g clip-path="url(#clip0)">
<path d="M69.29 40.38L72.81 43.9V62.13L63.26 71.67L62.26 72.67H58.78L56.11 70L48.27 62.16V44.58C48.99 43.81 49.59 43.06 50.17 42.33C50.75 41.6 51.17 41.02 51.81 40.38H69.29V40.38ZM70.09 38.38H51C49.18 40.2 48.15 41.93 46.33 43.75V62.93L58 74.58H63.1L74.75 62.93V43.09L70.09 38.43V38.38Z" fill="#B70037"/>
<path d="M60.21 58.59L54.04 52.42L55.1 51.36L60.21 56.47L68.03 48.65L69.09 49.71L60.21 58.59Z" fill="#B70037"/>
<path d="M47.47 68.14H26.57V69.64H47.47V68.14Z" fill="#B70037"/>
<path d="M44.03 53.57H26.57V55.07H44.03V53.57Z" fill="#B70037"/>
<path d="M6.5 74.65H5V23.83L13.5 15H27.93V24.92H12.93V17.72L6.5 24.43V74.65ZM14.43 23.38H26.43V16.46H14.43V23.38Z" fill="#B70037"/>
<path d="M23.39 11.77H17.44V13.27H23.39V11.77Z" fill="#B70037"/>
<path d="M19.01 47.24H17.51V36.38L23.39 30.5H61.17L66.83 36.16L65.77 37.22L60.55 32H24.01L19.01 37V47.24Z" fill="#B70037"/>
<path d="M66.77 24.75H46.93V5H66.77V24.75ZM48.43 23.25H65.27V6.5H48.43V23.25Z" fill="#B70037"/>
<path d="M26.78 74.4H9.78V50.81L14.1 46.49H22.49L26.81 50.81L26.78 74.4ZM11.25 72.9H25.25V51.43L21.84 48H14.69L11.25 51.43V72.9Z" fill="#B70037"/>
<path d="M48.22 24.65L47.16 23.59L59.56 11.18L66.8 18.42L65.74 19.48L59.56 13.3L48.22 24.65Z" fill="#B70037"/>
</g>
<defs>
<clipPath id="clip0">
<rect width="69.75" height="69.65" fill="white" transform="translate(5 5)"/>
</clipPath>
</defs>
</svg>
