<svg width="80" height="80" viewBox="0 0 80 80" fill="none" xmlns="http://www.w3.org/2000/svg">
<g clip-path="url(#clip0)">
<path d="M69.46 41L73.05 44.58V63.12L62.34 73.83H58.76L55 70.1L48 63.1V45.26C48.73 44.47 49.34 43.71 49.93 42.97C50.52 42.23 51.01 41.63 51.61 40.97H69.46V41ZM70.28 38.97H50.82C48.97 40.82 47.93 42.58 46.08 44.43V63.94L57.94 75.81H63.16L75 63.94V43.74L70.28 39V38.97Z" fill="#B70037"/>
<path d="M60.22 59.5L53.94 53.23L55 52.17L60.22 57.38L68.19 49.41L69.25 50.47L60.22 59.5Z" fill="#B70037"/>
<path d="M64.34 34.23H55.81L52.17 30.58L48.53 34.23H40.26L36.62 30.58L33 34.23H23.72L20.08 30.58L16.43 34.23H8.43L4 29.83V20.77L19.77 5H52.43L68.76 21.37V29.83L68.54 30.05C67.79 30.81 67.19 31.4 66.54 31.99L64.54 33.99L64.34 34.23ZM56.43 32.73H63.72L65.54 30.92L67.26 29.21V22L51.8 6.5H20.39L5.5 21.39V29.21L9 32.73H15.8L20.07 28.46L24.33 32.73H32.33L36.6 28.46L40.86 32.73H47.86L52.13 28.46L56.43 32.73Z" fill="#B70037"/>
<path d="M31.13 68.77H8.70001V39.6H43.39V41.1H10.2V67.27H31.13V68.77Z" fill="#B70037"/>
<path d="M25.4728 48.8317L15.8137 58.4908L16.8744 59.5514L26.5335 49.8924L25.4728 48.8317Z" fill="#B70037"/>
<path d="M19.5605 46.0832L13.239 52.4047L14.2996 53.4654L20.6211 47.1439L19.5605 46.0832Z" fill="#B70037"/>
<path d="M48.36 75.6H8.70001V33.48H10.2V74.1H48.36V75.6Z" fill="#B70037"/>
<path d="M43.06 74.85H41.56V50.69H32.28V74.85H30.78V49.19H43.06V74.85Z" fill="#B70037"/>
</g>
<defs>
<clipPath id="clip0">
<rect width="71.02" height="70.81" fill="white" transform="translate(4 5)"/>
</clipPath>
</defs>
</svg>
