<svg width="80" height="80" viewBox="0 0 80 80" fill="none" xmlns="http://www.w3.org/2000/svg">
<g clip-path="url(#clip0)">
<path d="M44.41 64.74H12.41L6 57.86V28.44L12.3 22H23.59V13.18L28.77 8H51.77L57 13.18V22H68.24L74.56 28.5V33.25H73.06V29.11L67.61 23.5H55.48V13.8L51.18 9.5H29.39L25.09 13.8V23.5H12.93L7.5 29.06V57.27L13.09 63.27H44.41V64.74ZM50 23.5H30.54V16.13L32.73 13.93H47.84L50 16.13V23.5ZM32 22H48.5V16.75L47.22 15.43H33.35L32 16.75V22Z" fill="#B70037"/>
<path d="M69.35 38L72.83 41.48V58.93L65.32 66.44L62.45 69.32H59L48.59 58.93V41.47L52.07 38H69.35ZM70.15 36.09H51.28L46.67 40.69V59.69L58.18 71.19H63.24L74.75 59.69V40.69L70.15 36.09Z" fill="#B70037"/>
<path d="M60.39 55.45L54.29 49.35L55.35 48.29L60.39 53.33L68.11 45.61L69.17 46.67L60.39 55.45Z" fill="#B70037"/>
<path d="M22.2 64.74H12.76V22H22.2V35.42H20.71V23.5H14.26V63.24H20.71V51.91H22.2V64.74Z" fill="#B70037"/>
<path d="M68.24 32.79H66.74V23.5H60.3V32.79H58.8V22H68.24V32.79Z" fill="#B70037"/>
<path d="M25.29 51.33L17.16 43.2L31 29.32L39.13 37.45L25.29 51.33ZM19.29 43.2L25.29 49.2L37.05 37.45L31.05 31.45L19.29 43.2Z" fill="#B70037"/>
</g>
<defs>
<clipPath id="clip0">
<rect width="68.75" height="63.23" fill="white" transform="translate(6 8)"/>
</clipPath>
</defs>
</svg>
