<svg width="80" height="80" viewBox="0 0 80 80" fill="none" xmlns="http://www.w3.org/2000/svg">
<g clip-path="url(#clip0)">
<path d="M70.85 41.57L74.51 45.23V63.62L63.57 74.55H59.92L56.92 71.55L49 63.62V45.23L52.67 41.57H70.87H70.85ZM71.7 39.57H51.81L47 44.4V64.45L59.08 76.57H64.41L76.53 64.45V44.4L71.7 39.57Z" fill="#B70037"/>
<path d="M61.41 59.9L55.01 53.5L56.07 52.44L61.41 57.78L69.56 49.62L70.63 50.68L61.41 59.9Z" fill="#B70037"/>
<path d="M21.4964 44.0715L13.1384 52.4295L14.199 53.4901L22.557 45.1321L21.4964 44.0715Z" fill="#B70037"/>
<path d="M42.8 45.47H21.4L4.16998 28.23L9.73998 22.66H16.07L27.75 34.34H60.44V35.84H27.12L15.45 24.16H10.36L6.28998 28.23L22.02 43.97H42.8V45.47Z" fill="#B70037"/>
<path d="M25.67 23.59L24.61 22.53L38.25 8.89001H52.23L65.86 22.53L64.8 23.59L51.61 10.39H38.87L25.67 23.59Z" fill="#B70037"/>
<path d="M62.47 19.47H27.98V20.97H62.47V19.47Z" fill="#B70037"/>
<path d="M45.99 20.22H44.49V32.19H45.99V20.22Z" fill="#B70037"/>
<path d="M45.99 4H44.49V9.64H45.99V4Z" fill="#B70037"/>
<path d="M34.46 64.22C30.7377 64.2149 27.159 62.7834 24.46 60.22C21.6853 62.7355 18.049 64.0867 14.305 63.9936C10.5609 63.9005 6.99627 62.3702 4.35 59.72L4 59.37L5.06 58.31L5.41 58.65C6.62396 59.8661 8.0658 60.8309 9.65302 61.4891C11.2402 62.1474 12.9417 62.4862 14.66 62.4862C16.3783 62.4862 18.0798 62.1474 19.667 61.4891C21.2542 60.8309 22.696 59.8661 23.91 58.65L24.44 58.11L25.21 58.89C27.6674 61.3393 30.9954 62.7147 34.465 62.7147C37.9346 62.7147 41.2626 61.3393 43.72 58.89L44.81 59.89C43.4566 61.2599 41.845 62.3479 40.0685 63.0912C38.292 63.8344 36.3857 64.2181 34.46 64.22V64.22Z" fill="#B70037"/>
</g>
<defs>
<clipPath id="clip0">
<rect width="72.53" height="72.57" fill="white" transform="translate(4 4)"/>
</clipPath>
</defs>
</svg>
