<svg width="80" height="80" viewBox="0 0 80 80" fill="none" xmlns="http://www.w3.org/2000/svg">
<g clip-path="url(#clip0)">
<path d="M70.19 41L73.78 44.59V62.59L66.46 69.9L63.08 73.2H59.51L48.82 62.51V44.51L52.4 41H70.19ZM71 39H51.58L46.84 43.74V63.33C51.47 67.95 54.07 70.55 58.69 75.18H63.9L75.75 63.33V43.72L71 39Z" fill="#B70037"/>
<path d="M60.97 58.9L54.7 52.63L55.76 51.57L60.97 56.78L68.93 48.81L69.99 49.87L60.97 58.9Z" fill="#B70037"/>
<path d="M19.88 49.67H9.39L5 45.28V31.36L5.22 31.14C6 30.35 6.61 29.8 7.22 29.25C7.83 28.7 8.41 28.17 9.17 27.41L9.39 27.19H21.71L36.37 12.36H66.82L67.04 12.58C68.59 14.14 69.91 15.46 71.22 16.79L75.33 20.92L75.55 21.14V35.8H74.05V21.8C72.62 20.37 71.39 19.12 70.16 17.88L66.16 13.88H37L22.34 28.69H10C9.32 29.36 8.77 29.86 8.22 30.36C7.67 30.86 7.16 31.33 6.5 32V44.66L10 48.17H19.25L24.65 42.77H33.84L39 48H44V49.5H38.41L33.23 44.31H25.28L19.88 49.67Z" fill="#B70037"/>
<path d="M29.07 61.78C27.7214 61.782 26.4026 61.3835 25.2807 60.6351C24.1589 59.8866 23.2845 58.822 22.7684 57.576C22.2524 56.3301 22.1178 54.959 22.3819 53.6365C22.646 52.314 23.2968 51.0997 24.2518 50.1475C25.2068 49.1953 26.423 48.5481 27.7462 48.2879C29.0695 48.0278 30.4402 48.1663 31.6846 48.6861C32.929 49.2058 33.9911 50.0833 34.7362 51.2074C35.4813 52.3314 35.8759 53.6514 35.87 55C35.8621 56.7992 35.1425 58.5221 33.8684 59.7925C32.5943 61.0628 30.8692 61.7774 29.07 61.78V61.78ZM29.07 49.67C28.0189 49.668 26.9909 49.978 26.1162 50.5607C25.2414 51.1434 24.5593 51.9726 24.1561 52.9433C23.753 53.914 23.647 54.9825 23.8516 56.0135C24.0561 57.0444 24.5621 57.9915 25.3053 58.7347C26.0485 59.4779 26.9956 59.9839 28.0265 60.1884C29.0575 60.393 30.126 60.287 31.0967 59.8839C32.0674 59.4807 32.8966 58.7986 33.4793 57.9238C34.062 57.0491 34.372 56.0211 34.37 54.97C34.3674 53.5652 33.8081 52.2186 32.8147 51.2253C31.8214 50.2319 30.4748 49.6726 29.07 49.67V49.67Z" fill="#B70037"/>
<path d="M67.9 8H36.26V9.5H67.9V8Z" fill="#B70037"/>
<path d="M6.33002 45.56L5.27002 44.5L9.86002 39.91C10.0651 39.7077 10.2274 39.4662 10.3374 39.2C10.4473 38.9337 10.5026 38.6481 10.5 38.36C10.5013 38.0707 10.4453 37.7841 10.3353 37.5165C10.2252 37.249 10.0632 37.006 9.85861 36.8014C9.65405 36.5969 9.411 36.4349 9.14349 36.3248C8.87597 36.2147 8.5893 36.1587 8.30002 36.16H5.75002V34.66H8.30002C9.28132 34.66 10.2224 35.0498 10.9163 35.7437C11.6102 36.4376 12 37.3787 12 38.36C12.0053 38.8499 11.9125 39.3358 11.727 39.7892C11.5415 40.2426 11.2671 40.6543 10.92 41L6.33002 45.56Z" fill="#B70037"/>
</g>
<defs>
<clipPath id="clip0">
<rect width="70.75" height="67.18" fill="white" transform="translate(5 8)"/>
</clipPath>
</defs>
</svg>
