<svg width="80" height="80" viewBox="0 0 80 80" fill="none" xmlns="http://www.w3.org/2000/svg">
<g clip-path="url(#clip0)">
<path d="M13.09 74.21H11.59V50.8H6V39.48L12.78 32.7V11.7H25.94V19.52L40.47 5L46.73 11.26V20.39L32.1 35L36.33 39.22L27.13 48.42L26.07 47.36L34.2 39.22L30 35L45.23 19.76V11.88L40.47 7.12L24.47 23.12V13.22H14.28V33.32L7.5 40.1V49.3H13.09V74.21ZM69.36 74.05H16L24.79 65.26H18L26.5 56.75L27.56 57.81L21.62 63.76H28.36L19.57 72.55H67.86V49.3H73.45V40.1L51.65 18.29V23.08L46.53 28.2L53.28 35V39.58H51.78V35.58L44.41 28.2L50.15 22.46V14.67L75 39.48V50.8H69.36V74.05ZM59.5 66.31H44.66V59H46.16V64.82H58V56.57L52.49 50.1L48.6 54L44.66 50.06V43.71H59.5V66.31ZM52.57 47.89L58 54.26V45.26H46.16V49.48L48.6 51.92L52.57 47.89Z" fill="#B70037"/>
</g>
<defs>
<clipPath id="clip0">
<rect width="68.95" height="69.21" fill="white" transform="translate(6 5)"/>
</clipPath>
</defs>
</svg>
