<svg width="80" height="80" viewBox="0 0 80 80" fill="none" xmlns="http://www.w3.org/2000/svg">
<g clip-path="url(#clip0)">
<path d="M58.58 59.52H57.08V46H45.3V59.5H43.8V44.5H58.58V59.52ZM68.42 59.42H66.92V50.13H72.48V41L39.63 8.12L23.63 24.12V14.2H13.54V34.2L6.79001 41V50.16H12.35V59.45H10.85V51.63H5.29001V40.35L12 33.59V12.7H25.16V20.48L39.63 6L74 40.35V51.63H68.42V59.42Z" fill="#B70037"/>
<path d="M51.08 64.84C46.7628 64.8335 42.6227 63.1228 39.56 60.08L39.04 60.58C35.9367 63.3973 31.8705 64.916 27.6802 64.823C23.4899 64.73 19.4952 63.0322 16.52 60.08C13.4573 63.1228 9.31724 64.8335 5 64.84L5 63.34C7.07012 63.3418 9.1178 62.9113 11.012 62.0762C12.9061 61.241 14.6051 60.0196 16 58.49L16.55 57.88L17.11 58.49C18.4206 59.9387 20.0045 61.1142 21.7708 61.949C23.537 62.7838 25.4508 63.2613 27.4022 63.3542C29.3535 63.4472 31.304 63.1536 33.1416 62.4905C34.9792 61.8273 36.6677 60.8076 38.11 59.49C38.45 59.18 38.78 58.85 39.11 58.49L39.66 57.88L40.22 58.49C41.6141 60.0205 43.3129 61.2427 45.2073 62.0779C47.1016 62.9131 49.1497 63.343 51.22 63.34L51.08 64.84Z" fill="#B70037"/>
<path d="M74 64.84C69.6828 64.8335 65.5427 63.1228 62.48 60.08C59.4272 63.1131 55.3034 64.823 51 64.84V63.34C53.0703 63.343 55.1184 62.9131 57.0127 62.0779C58.9071 61.2427 60.6059 60.0205 62 58.49L62.56 57.88L63.11 58.49C64.5049 60.0196 66.2039 61.241 68.098 62.0762C69.9922 62.9113 72.0399 63.3418 74.11 63.34L74 64.84Z" fill="#B70037"/>
<path d="M51.08 73.72C46.7676 73.7285 42.6267 72.0318 39.56 69L39.04 69.5C35.9378 72.3195 31.8712 73.8398 27.6802 73.7468C23.4891 73.6537 19.494 71.9545 16.52 69C13.4533 72.0318 9.3124 73.7285 5 73.72H5V72.22C7.07012 72.2218 9.1178 71.7913 11.012 70.9562C12.9061 70.121 14.6051 68.8996 16 67.37L16.55 66.76L17.11 67.37C18.4213 68.8176 20.0055 69.992 21.7717 70.826C23.5379 71.66 25.4514 72.1372 27.4024 72.2301C29.3534 72.323 31.3035 72.0298 33.141 71.3674C34.9784 70.705 36.6671 69.6864 38.11 68.37C38.44 68.07 38.77 67.74 39.11 67.37L39.66 66.76L40.22 67.37C41.6141 68.9005 43.3129 70.1226 45.2073 70.9579C47.1016 71.7931 49.1497 72.223 51.22 72.22V73.72H51.08Z" fill="#B70037"/>
<path d="M74 73.72C69.6876 73.7285 65.5467 72.0318 62.48 69C59.4207 72.0184 55.2977 73.7136 51 73.72V73.72V72.22C53.0704 72.2236 55.1187 71.794 57.0131 70.9587C58.9075 70.1235 60.6062 68.901 62 67.37L62.56 66.76L63.11 67.37C64.5049 68.8996 66.2039 70.121 68.098 70.9562C69.9922 71.7913 72.0399 72.2218 74.11 72.22V72.22V73.72H74Z" fill="#B70037"/>
</g>
<defs>
<clipPath id="clip0">
<rect width="69" height="67.72" fill="white" transform="translate(5 6)"/>
</clipPath>
</defs>
</svg>
