<svg width="80" height="80" viewBox="0 0 80 80" fill="none" xmlns="http://www.w3.org/2000/svg">
<g clip-path="url(#clip0)">
<path d="M69.09 74.58H10.65V51.31H5V39.87L11.86 33V11.8H25.16V19.72L39.87 5L46 11.1L44.91 12.16L39.91 7.16L23.66 23.34V13.3H13.36V33.63L6.5 40.49V49.81H12.15V73.08H67.59V49.81H73.24V40.49L60.8 28.05L61.86 27L74.74 39.87V51.31H69.09V74.58ZM59.1 67H44.1V44.16H59.1V67ZM45.61 65.5H57.61V45.66H45.61V65.5Z" fill="#B70037"/>
<path d="M23.47 46L45.17 24.3H35.7L55 5H75.8L61.8 19H71.75L23.47 46ZM39.32 22.8H48.79L32.18 39.43L66 20.53H58.15L72.15 6.53H55.64L39.32 22.8Z" fill="#B70037"/>
</g>
<defs>
<clipPath id="clip0">
<rect width="70.8" height="69.58" fill="white" transform="translate(5 5)"/>
</clipPath>
</defs>
</svg>
